SplineFontDB: 3.0
FontName: Bodoni-16-Fatface
FullName: Bodoni* 16 Fatface
FamilyName: Bodoni* 16 Fatface
Weight: Fatface
Copyright: Copyright (c) 2017, Owen Earl,,, (EwonRael@yahoo.com)
Version: 001.0
ItalicAngle: 0
UnderlinePosition: -408
UnderlineWidth: 204
Ascent: 3276
Descent: 820
InvalidEm: 0
LayerCount: 2
Layer: 0 0 "Back" 1
Layer: 1 0 "Fore" 0
PreferredKerning: 4
XUID: [1021 31 -699969567 16487490]
FSType: 0
OS2Version: 0
OS2_WeightWidthSlopeOnly: 0
OS2_UseTypoMetrics: 1
CreationTime: 1460762150
ModificationTime: 1573674194
PfmFamily: 17
TTFWeight: 900
TTFWidth: 5
LineGap: 0
VLineGap: 0
OS2TypoAscent: 4194
OS2TypoAOffset: 0
OS2TypoDescent: -820
OS2TypoDOffset: 0
OS2TypoLinegap: 0
OS2WinAscent: 4096
OS2WinAOffset: 0
OS2WinDescent: 1638
OS2WinDOffset: 0
HheadAscent: 4194
HheadAOffset: 0
HheadDescent: -820
HheadDOffset: 0
OS2CapHeight: 3072
OS2XHeight: 1884
OS2FamilyClass: 768
OS2Vendor: 'it* '
OS2UnicodeRanges: 00000001.00000000.00000000.00000000
Lookup: 1 0 0 "'ss02' Style Set 2 lookup 4" { "'ss02' Style Set 2 lookup 4-1"  } ['ss02' ('DFLT' <'dflt' > 'grek' <'dflt' > 'latn' <'dflt' > ) ]
Lookup: 1 0 0 "'ss03' Style Set 3 lookup 5" { "'ss03' Style Set 3 lookup 5-1"  } ['ss03' ('DFLT' <'dflt' > 'grek' <'dflt' > 'latn' <'dflt' > ) ]
Lookup: 1 0 0 "'ss01' Style Set 1 lookup 2" { "'ss01' Style Set 1 lookup 2-1"  } ['ss01' ('DFLT' <'dflt' > 'grek' <'dflt' > 'latn' <'dflt' > ) ]
Lookup: 5 0 0 "'calt' Contextual Alternates lookup 3" { "'calt' Contextual Alternates lookup 3-1"  } ['calt' ('DFLT' <'dflt' > 'grek' <'dflt' > 'latn' <'dflt' > ) ]
Lookup: 4 0 1 "'liga' Standard Ligatures lookup 0" { "'liga' Standard Ligatures lookup 0-1"  } ['liga' ('DFLT' <'dflt' > 'grek' <'dflt' > 'latn' <'dflt' > ) ]
Lookup: 258 0 0 "'kern' Horizontal Kerning lookup 0" { "kerning like they all do" [150,0,6] } ['kern' ('DFLT' <'dflt' > 'grek' <'dflt' > 'latn' <'dflt' > ) ]
MarkAttachClasses: 1
DEI: 91125
KernClass2: 30 27 "kerning like they all do"

StartChar: ampersand
Encoding: 38 38 0
GlifName: ampersand
Width: 3764
Flags: HMW
LayerCount: 2
Fore
SplineSet
1898 1995 m 13
 1869 2048 l 1
 1906 2085 1970 2129 1970 2642 c 0
 1970 2916 1930 3070 1778 3070 c 0
 1646 3070 1582 2920 1582 2744 c 0
 1582 2560 1724 2270 1900 2008 c 2
 3174 57 l 1
 3682 57 l 1
 3682 0 l 1
 2232 0 l 1
 876 2008 l 2
 770 2164 688 2366 688 2510 c 0
 688 2878 1118 3112 1798 3112 c 0
 2442 3112 2806 2936 2806 2650 c 0
 2806 2335 2394 2106 1898 1995 c 13
1091 1711 m 1
 1115 1666 l 1
 1074 1639 1014 1577 1014 1366 c 0
 1014 726 1257 160 1773 160 c 0
 2375 160 2990 928 3096 1844 c 1
 3152 1844 l 1
 3056 960 2466 -40 1224 -40 c 0
 474 -40 154 316 154 738 c 0
 154 1429 893 1624 1091 1711 c 1
2556 1884 m 1
 3538 1884 l 1
 3538 1827 l 1
 2556 1827 l 1
 2556 1884 l 1
EndSplineSet
EndChar

StartChar: period
Encoding: 46 46 1
GlifName: period
Width: 1310
Flags: HMW
LayerCount: 2
Fore
SplineSet
164 451 m 0
 164 721 385 942 655 942 c 0
 925 942 1147 721 1147 451 c 0
 1147 181 925 -41 655 -41 c 0
 385 -41 164 181 164 451 c 0
EndSplineSet
Validated: 1
EndChar

StartChar: zero
Encoding: 48 48 2
GlifName: zero
Width: 2867
Flags: HMW
LayerCount: 2
Fore
SplineSet
1434 -41 m 0
 684 -41 164 623 164 1536 c 0
 164 2449 725 3113 1434 3113 c 0
 2143 3113 2703 2449 2703 1536 c 0
 2703 623 2184 -41 1434 -41 c 0
1434 3064 m 0
 1172 3064 1126 2486 1126 1536 c 0
 1126 586 1131 8 1434 8 c 0
 1737 8 1741 586 1741 1536 c 0
 1741 2486 1737 3064 1434 3064 c 0
EndSplineSet
Validated: 1
EndChar

StartChar: one
Encoding: 49 49 3
GlifName: one
Width: 2273
VWidth: 4730
Flags: HMW
LayerCount: 2
Fore
SplineSet
205 57 m 1
 2068 57 l 1
 2068 0 l 1
 205 0 l 1
 205 57 l 1
274 3072 m 1
 1618 3072 l 1
 1618 29 l 1
 737 29 l 1
 737 3015 l 1
 274 3015 l 1
 274 3072 l 1
EndSplineSet
Validated: 5
EndChar

StartChar: two
Encoding: 50 50 4
GlifName: two
Width: 2662
VWidth: 4730
Flags: HMW
LayerCount: 2
Fore
SplineSet
2519 0 m 1
 164 0 l 1
 164 553 l 1
 995 1085 l 2
 1343 1310 1532 1581 1532 2089 c 0
 1532 2638 1290 2933 971 2933 c 0
 623 2933 286 2650 274 2277 c 1
 327 2470 508 2630 717 2630 c 0
 1016 2630 1221 2420 1221 2154 c 0
 1221 1867 942 1667 676 1667 c 0
 410 1667 201 1872 201 2249 c 0
 201 2728 647 3113 1331 3113 c 0
 2031 3113 2433 2786 2433 2335 c 0
 2433 1803 1913 1569 1528 1331 c 2
 766 860 l 1
 2462 860 l 1
 2462 1167 l 1
 2519 1167 l 1
 2519 0 l 1
EndSplineSet
Validated: 1
EndChar

StartChar: three
Encoding: 51 51 5
GlifName: three
Width: 2543
VWidth: 4730
Flags: HMW
LayerCount: 2
Fore
SplineSet
2380 860 m 0
 2380 287 1810 -41 1151 -41 c 0
 446 -41 102 385 102 762 c 0
 102 1053 307 1253 573 1253 c 0
 819 1253 999 1073 999 803 c 0
 999 549 783 369 541 369 c 0
 398 369 311 422 266 471 c 1
 385 254 631 57 1004 57 c 0
 1410 57 1475 352 1475 860 c 0
 1475 1286 1359 1634 872 1634 c 1
 872 1675 l 1
 1941 1675 2380 1352 2380 860 c 0
872 1647 m 1
 872 1688 l 1
 1318 1688 1352 2118 1352 2421 c 0
 1352 2765 1266 3015 1024 3015 c 0
 807 3015 614 2904 512 2798 c 1
 561 2847 631 2863 705 2863 c 0
 906 2863 1102 2700 1102 2454 c 0
 1102 2188 889 1999 664 1999 c 0
 418 1999 225 2147 225 2417 c 0
 225 2835 733 3109 1151 3109 c 0
 1769 3109 2257 2831 2257 2380 c 0
 2257 1970 1900 1647 872 1647 c 1
EndSplineSet
Validated: 5
EndChar

StartChar: four
Encoding: 52 52 6
GlifName: four
Width: 2805
VWidth: 4730
Flags: HMW
LayerCount: 2
Fore
SplineSet
2621 57 m 1
 2621 0 l 1
 1044 0 l 1
 1044 57 l 1
 1434 57 l 1
 1434 2593 l 1
 250 909 l 1
 2765 909 l 1
 2765 852 l 1
 143 852 l 1
 1700 3072 l 1
 2314 3072 l 1
 2314 57 l 1
 2621 57 l 1
EndSplineSet
Validated: 5
Substitution2: "'ss03' Style Set 3 lookup 5-1" four.alt
EndChar

StartChar: five
Encoding: 53 53 7
GlifName: five
Width: 2334
VWidth: 4730
Flags: HMW
LayerCount: 2
Fore
SplineSet
2068 2212 m 1
 250 2212 l 1
 250 1380 l 1
 193 1380 l 1
 193 3072 l 1
 2011 3072 l 1
 2011 3297 l 1
 2068 3297 l 1
 2068 2212 l 1
229 254 m 1
 286 143 524 33 737 33 c 0
 1102 33 1290 332 1290 881 c 0
 1290 1512 1160 1704 836 1704 c 0
 590 1704 372 1577 270 1380 c 1
 221 1380 l 1
 327 1613 577 1802 1032 1802 c 0
 1732 1802 2212 1495 2212 881 c 0
 2212 308 1626 -41 885 -41 c 0
 426 -41 -41 151 -41 610 c 0
 -41 901 172 1110 438 1110 c 0
 704 1110 918 942 918 655 c 0
 918 389 680 164 422 164 c 0
 332 164 274 201 229 254 c 1
EndSplineSet
Validated: 5
EndChar

StartChar: six
Encoding: 54 54 8
GlifName: six
Width: 2703
VWidth: 4730
Flags: HMW
LayerCount: 2
Fore
SplineSet
1638 1024 m 0
 1638 1778 1553 1913 1393 1913 c 0
 1229 1913 1147 1761 1147 1147 c 1
 1106 1147 l 1
 1106 1696 1123 2028 1561 2028 c 0
 2057 2028 2580 1720 2580 1024 c 0
 2580 410 2109 -41 1409 -41 c 0
 709 -41 205 410 205 1270 c 0
 205 2265 1032 3113 2273 3113 c 1
 2273 3064 l 1
 1519 3064 1135 2232 1135 1470 c 1
 1147 1147 l 1
 1147 393 1220 16 1421 16 c 0
 1622 16 1638 352 1638 1024 c 0
EndSplineSet
Validated: 5
EndChar

StartChar: seven
Encoding: 55 55 9
GlifName: seven
Width: 2355
VWidth: 4730
Flags: HMW
LayerCount: 2
Fore
SplineSet
524 434 m 0
 524 758 962 1110 1290 1548 c 0
 1417 1716 1499 1835 1712 2191 c 1
 221 2191 l 1
 221 1884 l 1
 164 1884 l 1
 164 3072 l 1
 2314 3072 l 1
 2314 3072 1765 2097 1409 1589 c 0
 1192 1278 1159 1237 1159 1114 c 0
 1159 897 1548 835 1548 442 c 0
 1548 168 1343 -41 1040 -41 c 0
 757 -41 524 110 524 434 c 0
EndSplineSet
Validated: 1
EndChar

StartChar: eight
Encoding: 56 56 10
GlifName: eight
Width: 2662
VWidth: 4730
Flags: HMW
LayerCount: 2
Fore
SplineSet
1147 2294 m 0
 1147 1745 1212 1618 1331 1618 c 0
 1450 1618 1516 1745 1516 2294 c 0
 1516 2802 1450 3031 1331 3031 c 0
 1212 3031 1147 2802 1147 2294 c 0
246 2294 m 0
 246 2745 631 3113 1331 3113 c 0
 2031 3113 2417 2745 2417 2294 c 0
 2417 1843 2031 1556 1331 1556 c 0
 631 1556 246 1843 246 2294 c 0
1065 778 m 0
 1065 311 1130 41 1331 41 c 0
 1532 41 1597 311 1597 778 c 0
 1597 1245 1532 1536 1331 1536 c 0
 1130 1536 1065 1245 1065 778 c 0
164 778 m 0
 164 1270 549 1597 1331 1597 c 0
 2113 1597 2499 1270 2499 778 c 0
 2499 286 2113 -41 1331 -41 c 0
 549 -41 164 286 164 778 c 0
EndSplineSet
Validated: 5
EndChar

StartChar: A
Encoding: 65 65 12
GlifName: A_
Width: 3399
Flags: HMW
LayerCount: 2
Fore
SplineSet
61 57 m 1
 963 57 l 1
 963 0 l 1
 61 0 l 1
 61 57 l 1
1741 57 m 1
 3338 57 l 1
 3338 0 l 1
 1741 0 l 1
 1741 57 l 1
778 1032 m 1
 2109 1032 l 1
 2109 975 l 1
 778 975 l 1
 778 1032 l 1
1278 2306 m 1
 467 0 l 1
 397 0 l 1
 1507 3133 l 1
 1966 3133 l 1
 3052 0 l 1
 2028 0 l 1
 1278 2306 l 1
EndSplineSet
Validated: 5
EndChar

StartChar: B
Encoding: 66 66 13
GlifName: B_
Width: 3133
Flags: HMW
LayerCount: 2
Fore
SplineSet
1659 1561 m 2
 1126 1561 l 1
 1126 1606 l 1
 1495 1606 l 2
 1765 1606 1946 1786 1946 2273 c 0
 1946 2760 1765 3015 1495 3015 c 2
 61 3015 l 1
 61 3072 l 1
 1659 3072 l 2
 2400 3072 2847 2846 2847 2314 c 0
 2847 1822 2441 1561 1659 1561 c 2
430 3072 m 1
 1311 3072 l 1
 1311 0 l 1
 430 0 l 1
 430 3072 l 1
1741 0 m 2
 61 0 l 1
 61 57 l 1
 1536 57 l 2
 1847 57 2028 373 2028 860 c 0
 2028 1347 1847 1548 1536 1548 c 2
 1126 1548 l 1
 1126 1593 l 1
 1741 1593 l 2
 2441 1593 2970 1392 2970 778 c 0
 2970 205 2523 0 1741 0 c 2
EndSplineSet
Validated: 5
EndChar

StartChar: C
Encoding: 67 67 14
GlifName: C_
Width: 3010
Flags: HMW
LayerCount: 2
Fore
SplineSet
2765 3072 m 1
 2806 3072 l 1
 2806 2109 l 1
 2753 2203 2347 2789 2265 2871 c 1
 2765 3072 l 1
2806 2109 m 1
 2748 2109 l 1
 2441 2658 2199 3027 1761 3027 c 0
 1253 3027 1126 2281 1126 1536 c 0
 1126 791 1253 45 1761 45 c 0
 2310 45 2494 447 2789 963 c 1
 2847 963 l 1
 2601 377 2306 -41 1720 -41 c 0
 725 -41 164 623 164 1536 c 0
 164 2449 725 3113 1720 3113 c 0
 2244 3113 2519 2695 2806 2109 c 1
2847 963 m 1
 2847 0 l 1
 2806 0 l 1
 2322 209 l 1
 2408 295 2806 877 2847 963 c 1
EndSplineSet
Validated: 5
EndChar

StartChar: D
Encoding: 68 68 15
GlifName: D_
Width: 3338
Flags: HMW
LayerCount: 2
Fore
SplineSet
430 3072 m 1
 1311 3072 l 1
 1311 0 l 1
 430 0 l 1
 430 3072 l 1
1536 0 m 2
 61 0 l 1
 61 57 l 1
 1536 57 l 2
 2044 57 2212 668 2212 1536 c 0
 2212 2404 2003 3015 1536 3015 c 2
 61 3015 l 1
 61 3072 l 1
 1536 3072 l 2
 2572 3072 3174 2490 3174 1536 c 0
 3174 582 2531 0 1536 0 c 2
EndSplineSet
Validated: 5
EndChar

StartChar: E
Encoding: 69 69 16
GlifName: E_
Width: 2744
Flags: HMW
LayerCount: 2
Fore
SplineSet
2564 922 m 1
 2621 922 l 1
 2621 0 l 1
 61 0 l 1
 61 57 l 1
 1516 57 l 2
 2077 57 2441 402 2564 922 c 1
430 3072 m 1
 1311 3072 l 1
 1311 0 l 1
 430 0 l 1
 430 3072 l 1
61 3072 m 1
 2580 3072 l 1
 2580 2232 l 1
 2523 2232 l 1
 2400 2670 2035 3015 1556 3015 c 2
 61 3015 l 1
 61 3072 l 1
1950 1016 m 1
 1827 1290 1585 1561 1352 1561 c 2
 1106 1561 l 1
 1106 1618 l 1
 1352 1618 l 2
 1585 1618 1827 1868 1950 2142 c 1
 2007 2142 l 1
 2007 1016 l 1
 1950 1016 l 1
EndSplineSet
Validated: 5
EndChar

StartChar: F
Encoding: 70 70 17
GlifName: F_
Width: 2621
Flags: HMW
LayerCount: 2
Fore
SplineSet
61 3072 m 1
 2499 3072 l 1
 2499 2232 l 1
 2441 2232 l 1
 2318 2670 2035 3015 1597 3015 c 2
 61 3015 l 1
 61 3072 l 1
61 57 m 1
 1720 57 l 1
 1720 0 l 1
 61 0 l 1
 61 57 l 1
430 3072 m 1
 1311 3072 l 1
 1311 0 l 1
 430 0 l 1
 430 3072 l 1
1909 934 m 1
 1786 1208 1605 1499 1331 1499 c 2
 1065 1499 l 1
 1065 1556 l 1
 1331 1556 l 2
 1605 1556 1786 1827 1909 2101 c 1
 1966 2101 l 1
 1966 934 l 1
 1909 934 l 1
EndSplineSet
Validated: 5
EndChar

StartChar: G
Encoding: 71 71 18
GlifName: G_
Width: 3276
Flags: HMW
LayerCount: 2
Fore
SplineSet
2970 2109 m 1
 2847 2461 2540 2748 2343 2908 c 1
 2929 3072 l 1
 2970 3072 l 1
 2970 2109 l 1
1720 1196 m 1
 3236 1196 l 1
 3236 1139 l 1
 1720 1139 l 1
 1720 1196 l 1
2150 1155 m 1
 3072 1155 l 1
 3072 594 l 1
 2662 295 2409 -41 1741 -41 c 0
 766 -41 164 541 164 1536 c 0
 164 2531 971 3113 1802 3113 c 0
 2326 3113 2896 2613 2970 2109 c 1
 2912 2109 l 1
 2748 2486 2388 3023 1876 3023 c 0
 1368 3023 1126 2281 1126 1536 c 0
 1126 791 1254 41 1741 41 c 0
 1921 41 2068 258 2150 512 c 1
 2150 1155 l 1
EndSplineSet
Validated: 5
EndChar

StartChar: H
Encoding: 72 72 19
GlifName: H_
Width: 3481
Flags: HMW
LayerCount: 2
Fore
SplineSet
1229 1544 m 1
 2253 1544 l 1
 2253 1487 l 1
 1229 1487 l 1
 1229 1544 l 1
1843 57 m 1
 3420 57 l 1
 3420 0 l 1
 1843 0 l 1
 1843 57 l 1
61 57 m 1
 1638 57 l 1
 1638 0 l 1
 61 0 l 1
 61 57 l 1
1843 3072 m 1
 3420 3072 l 1
 3420 3015 l 1
 1843 3015 l 1
 1843 3072 l 1
61 3072 m 1
 1638 3072 l 1
 1638 3015 l 1
 61 3015 l 1
 61 3072 l 1
2171 3072 m 1
 3052 3072 l 1
 3052 0 l 1
 2171 0 l 1
 2171 3072 l 1
430 3072 m 1
 1311 3072 l 1
 1311 0 l 1
 430 0 l 1
 430 3072 l 1
EndSplineSet
Validated: 5
EndChar

StartChar: I
Encoding: 73 73 20
GlifName: I_
Width: 1945
Flags: HMW
LayerCount: 2
Fore
SplineSet
61 57 m 1
 1884 57 l 1
 1884 0 l 1
 61 0 l 1
 61 57 l 1
61 3072 m 1
 1884 3072 l 1
 1884 3015 l 1
 61 3015 l 1
 61 3072 l 1
512 3072 m 1
 1393 3072 l 1
 1393 0 l 1
 512 0 l 1
 512 3072 l 1
EndSplineSet
Validated: 5
EndChar

StartChar: J
Encoding: 74 74 21
GlifName: J_
Width: 2625
Flags: HMW
LayerCount: 2
Fore
SplineSet
741 3072 m 1
 2564 3072 l 1
 2564 3015 l 1
 741 3015 l 1
 741 3072 l 1
1274 3072 m 1
 2154 3072 l 1
 2154 696 l 1
 1908 204 1626 -123 926 -123 c 0
 406 -123 41 102 41 512 c 0
 41 807 274 1024 561 1024 c 0
 827 1024 1036 828 1036 537 c 0
 1036 291 840 49 582 49 c 0
 484 49 389 74 328 115 c 1
 447 -8 680 -61 893 -61 c 0
 1184 -61 1274 205 1274 778 c 2
 1274 3072 l 1
EndSplineSet
Validated: 5
Substitution2: "'ss02' Style Set 2 lookup 4-1" J.alt
EndChar

StartChar: K
Encoding: 75 75 22
GlifName: K_
Width: 3502
Flags: HMW
LayerCount: 2
Fore
SplineSet
61 57 m 1
 1638 57 l 1
 1638 0 l 1
 61 0 l 1
 61 57 l 1
61 3072 m 1
 1720 3072 l 1
 1720 3015 l 1
 61 3015 l 1
 61 3072 l 1
430 3072 m 1
 1311 3072 l 1
 1311 0 l 1
 430 0 l 1
 430 3072 l 1
791 889 m 1
 705 889 l 1
 2810 3064 l 1
 2896 3064 l 1
 791 889 l 1
1802 57 m 1
 3482 57 l 1
 3482 0 l 1
 1802 0 l 1
 1802 57 l 1
3297 3015 m 1
 2314 3015 l 1
 2314 3072 l 1
 3297 3072 l 1
 3297 3015 l 1
3162 0 m 1
 2179 0 l 1
 1323 1487 l 1
 1917 2114 l 1
 3162 0 l 1
EndSplineSet
Validated: 5
EndChar

StartChar: L
Encoding: 76 76 23
GlifName: L_
Width: 2703
Flags: HMW
LayerCount: 2
Fore
SplineSet
430 3072 m 1
 1311 3072 l 1
 1311 0 l 1
 430 0 l 1
 430 3072 l 1
61 3072 m 1
 1679 3072 l 1
 1679 3015 l 1
 61 3015 l 1
 61 3072 l 1
2621 0 m 1
 61 0 l 1
 61 57 l 1
 1516 57 l 2
 2077 57 2441 402 2564 922 c 1
 2621 922 l 1
 2621 0 l 1
EndSplineSet
EndChar

StartChar: M
Encoding: 77 77 24
GlifName: M_
Width: 3850
Flags: HMW
LayerCount: 2
Fore
SplineSet
3789 3072 m 1
 3789 3015 l 1
 3502 3015 l 1
 3502 0 l 1
 2621 0 l 1
 2621 3072 l 1
 3789 3072 l 1
82 57 m 1
 729 57 l 1
 729 0 l 1
 82 0 l 1
 82 57 l 1
2294 57 m 1
 3789 57 l 1
 3789 0 l 1
 2294 0 l 1
 2294 57 l 1
1954 1221 m 1
 2589 3072 l 1
 2650 3072 l 1
 1585 -41 l 1
 1520 -41 l 1
 381 3072 l 1
 1266 3072 l 1
 1954 1221 l 1
373 3015 m 1
 61 3015 l 1
 61 3072 l 1
 434 3072 l 1
 434 0 l 1
 373 0 l 1
 373 3015 l 1
EndSplineSet
Validated: 5
EndChar

StartChar: N
Encoding: 78 78 25
GlifName: N_
Width: 3182
Flags: HMW
LayerCount: 2
Fore
SplineSet
2634 3072 m 1
 2695 3072 l 1
 2695 -41 l 1
 2601 -41 l 1
 471 3072 l 1
 1516 3072 l 1
 2634 1462 l 1
 2634 3072 l 1
2183 3072 m 1
 3125 3072 l 1
 3125 3015 l 1
 2183 3015 l 1
 2183 3072 l 1
61 57 m 1
 1008 57 l 1
 1008 0 l 1
 61 0 l 1
 61 57 l 1
483 3015 m 1
 61 3015 l 1
 61 3072 l 1
 545 3072 l 1
 545 0 l 1
 483 0 l 1
 483 3015 l 1
EndSplineSet
Validated: 5
EndChar

StartChar: O
Encoding: 79 79 26
GlifName: O_
Width: 3276
Flags: HMW
LayerCount: 2
Fore
SplineSet
1638 -41 m 0
 725 -41 164 623 164 1536 c 0
 164 2449 766 3113 1638 3113 c 0
 2510 3113 3113 2449 3113 1536 c 0
 3113 623 2551 -41 1638 -41 c 0
1638 3064 m 0
 1253 3064 1126 2486 1126 1536 c 0
 1126 586 1212 8 1638 8 c 0
 2064 8 2150 586 2150 1536 c 0
 2150 2486 2023 3064 1638 3064 c 0
EndSplineSet
Validated: 1
EndChar

StartChar: P
Encoding: 80 80 27
GlifName: P_
Width: 3010
Flags: HMW
LayerCount: 2
Fore
SplineSet
430 3072 m 1
 1311 3072 l 1
 1311 0 l 1
 430 0 l 1
 430 3072 l 1
61 57 m 1
 1679 57 l 1
 1679 0 l 1
 61 0 l 1
 61 57 l 1
1679 1364 m 2
 1024 1364 l 1
 1024 1421 l 1
 1516 1421 l 2
 1827 1421 1925 1847 1925 2212 c 0
 1925 2577 1827 3015 1516 3015 c 2
 61 3015 l 1
 61 3072 l 1
 1679 3072 l 2
 2502 3072 2867 2744 2867 2212 c 0
 2867 1680 2502 1364 1679 1364 c 2
EndSplineSet
Validated: 5
EndChar

StartChar: Q
Encoding: 81 81 28
GlifName: Q_
Width: 3276
Flags: HMW
LayerCount: 2
Fore
SplineSet
1638 -41 m 0
 725 -41 164 623 164 1536 c 0
 164 2449 766 3113 1638 3113 c 0
 2510 3113 3113 2449 3113 1536 c 0
 3113 623 2551 -41 1638 -41 c 0
1638 3064 m 0
 1253 3064 1126 2486 1126 1536 c 0
 1126 586 1212 8 1638 8 c 0
 2064 8 2150 586 2150 1536 c 0
 2150 2486 2023 3064 1638 3064 c 0
2580 -967 m 1
 2580 -1024 l 1
 1421 -1024 1147 -872 1147 41 c 1
 1471 -25 1794 -25 2109 41 c 1
 2109 -704 2113 -967 2580 -967 c 1
EndSplineSet
Validated: 37
EndChar

StartChar: R
Encoding: 82 82 29
GlifName: R_
Width: 3235
Flags: HMW
LayerCount: 2
Fore
SplineSet
1577 1569 m 2
 799 1569 l 1
 799 1606 l 1
 1372 1606 l 2
 1765 1606 1946 1786 1946 2314 c 0
 1946 2842 1765 3015 1372 3015 c 2
 61 3015 l 1
 61 3072 l 1
 1577 3072 l 2
 2318 3072 2847 2846 2847 2314 c 0
 2847 1782 2359 1569 1577 1569 c 2
61 57 m 1
 1679 57 l 1
 1679 0 l 1
 61 0 l 1
 61 57 l 1
430 3072 m 1
 1311 3072 l 1
 1311 0 l 1
 430 0 l 1
 430 3072 l 1
3195 61 m 1
 3129 24 2891 -41 2580 -41 c 0
 1298 -41 2401 1548 1393 1548 c 2
 799 1548 l 1
 799 1577 l 1
 1966 1577 l 2
 3248 1577 2457 66 2961 66 c 0
 3047 66 3121 90 3178 115 c 1
 3195 61 l 1
EndSplineSet
Validated: 5
Substitution2: "'ss01' Style Set 1 lookup 2-1" R.alt
EndChar

StartChar: S
Encoding: 83 83 30
GlifName: S_
Width: 2600
Flags: HMW
LayerCount: 2
Fore
SplineSet
2273 2109 m 1
 2216 2109 l 1
 1970 2625 1659 3039 1200 3039 c 0
 930 3039 778 2884 778 2642 c 0
 778 2007 2437 2171 2437 942 c 0
 2437 328 1909 -61 1331 -61 c 0
 692 -61 385 552 164 1044 c 1
 221 1044 l 1
 430 610 746 8 1307 8 c 0
 1659 8 1864 229 1864 512 c 0
 1864 1229 205 921 205 2232 c 0
 205 2805 680 3113 1176 3113 c 0
 1700 3113 2027 2687 2273 2109 c 1
2232 3113 m 1
 2273 3113 l 1
 2273 2109 l 1
 2216 2236 1823 2834 1741 2908 c 1
 2232 3113 l 1
205 -41 m 1
 164 -41 l 1
 164 1044 l 1
 234 897 651 246 725 180 c 1
 205 -41 l 1
EndSplineSet
Validated: 5
EndChar

StartChar: T
Encoding: 84 84 31
GlifName: T_
Width: 2969
Flags: HMW
LayerCount: 2
Fore
SplineSet
594 57 m 1
 2376 57 l 1
 2376 0 l 1
 594 0 l 1
 594 57 l 1
1044 3043 m 1
 1925 3043 l 1
 1925 0 l 1
 1044 0 l 1
 1044 3043 l 1
2048 3015 m 2
 922 3015 l 2
 525 3015 242 2548 119 2028 c 1
 61 2028 l 1
 61 3072 l 1
 2908 3072 l 1
 2908 2028 l 1
 2851 2028 l 1
 2728 2548 2445 3015 2048 3015 c 2
EndSplineSet
Validated: 5
EndChar

StartChar: U
Encoding: 85 85 32
GlifName: U_
Width: 3072
Flags: HMW
LayerCount: 2
Fore
SplineSet
2212 3072 m 1
 3011 3072 l 1
 3011 3015 l 1
 2212 3015 l 1
 2212 3072 l 1
61 3072 m 1
 1720 3072 l 1
 1720 3015 l 1
 61 3015 l 1
 61 3072 l 1
2572 3072 m 1
 2630 3072 l 1
 2630 942 l 2
 2630 266 2306 -61 1618 -61 c 0
 787 -61 430 233 430 942 c 2
 430 3072 l 1
 1311 3072 l 1
 1311 983 l 2
 1311 442 1388 49 1855 49 c 0
 2228 49 2572 299 2572 942 c 2
 2572 3072 l 1
EndSplineSet
Validated: 5
EndChar

StartChar: V
Encoding: 86 86 33
GlifName: V_
Width: 3358
Flags: HMW
LayerCount: 2
Fore
SplineSet
3318 3015 m 1
 2417 3015 l 1
 2417 3072 l 1
 3318 3072 l 1
 3318 3015 l 1
1802 3015 m 1
 41 3015 l 1
 41 3072 l 1
 1802 3072 l 1
 1802 3015 l 1
2101 766 m 1
 2912 3072 l 1
 2982 3072 l 1
 1872 -61 l 1
 1413 -61 l 1
 328 3072 l 1
 1352 3072 l 1
 2101 766 l 1
EndSplineSet
Validated: 5
EndChar

StartChar: W
Encoding: 87 87 34
GlifName: W_
Width: 5038
Flags: HMW
LayerCount: 2
Fore
SplineSet
2781 1946 m 1
 2015 -41 l 1
 1618 -41 l 1
 324 3072 l 1
 1356 3072 l 1
 2277 831 l 1
 2740 2023 l 1
 2781 1946 l 1
3178 1868 m 1
 3138 1942 l 1
 3600 3072 l 1
 3666 3072 l 1
 3178 1868 l 1
4997 3015 m 1
 4178 3015 l 1
 4178 3072 l 1
 4997 3072 l 1
 4997 3015 l 1
2789 3072 m 1
 3711 831 l 1
 4588 3072 l 1
 4653 3072 l 1
 3449 -41 l 1
 3178 -41 l 1
 1880 3072 l 1
 2789 3072 l 1
4014 3015 m 1
 41 3015 l 1
 41 3072 l 1
 4014 3072 l 1
 4014 3015 l 1
EndSplineSet
Validated: 5
EndChar

StartChar: X
Encoding: 88 88 35
GlifName: X_
Width: 3481
Flags: HMW
LayerCount: 2
Fore
SplineSet
1798 1544 m 1
 1716 1544 l 1
 2769 3064 l 1
 2839 3064 l 1
 1798 1544 l 1
508 0 m 1
 430 0 l 1
 1642 1708 l 1
 1720 1708 l 1
 508 0 l 1
1802 57 m 1
 3441 57 l 1
 3441 0 l 1
 1802 0 l 1
 1802 57 l 1
41 57 m 1
 1024 57 l 1
 1024 0 l 1
 41 0 l 1
 41 57 l 1
1823 3015 m 1
 184 3015 l 1
 184 3072 l 1
 1823 3072 l 1
 1823 3015 l 1
3215 3015 m 1
 2314 3015 l 1
 2314 3072 l 1
 3215 3072 l 1
 3215 3015 l 1
3178 0 m 1
 2195 0 l 1
 430 3072 l 1
 1397 3072 l 1
 3178 0 l 1
EndSplineSet
Validated: 5
EndChar

StartChar: Y
Encoding: 89 89 36
GlifName: Y_
Width: 3133
Flags: HMW
LayerCount: 2
Fore
SplineSet
3092 3015 m 1
 2232 3015 l 1
 2232 3072 l 1
 3092 3072 l 1
 3092 3015 l 1
1720 3015 m 1
 41 3015 l 1
 41 3072 l 1
 1720 3072 l 1
 1720 3015 l 1
799 57 m 1
 2458 57 l 1
 2458 0 l 1
 799 0 l 1
 799 57 l 1
2028 1675 m 1
 2720 3064 l 1
 2789 3064 l 1
 2048 1569 l 1
 2048 0 l 1
 1167 0 l 1
 1167 1475 l 1
 287 3072 l 1
 1311 3072 l 1
 2028 1675 l 1
EndSplineSet
Validated: 5
EndChar

StartChar: Z
Encoding: 90 90 37
GlifName: Z_
Width: 2764
Flags: HMW
LayerCount: 2
Fore
SplineSet
123 3072 m 1
 2580 3072 l 1
 2580 3015 l 1
 1044 57 l 1
 1638 57 l 2
 2199 57 2400 381 2564 901 c 1
 2621 901 l 1
 2621 0 l 1
 41 0 l 1
 41 57 l 1
 1577 3015 l 1
 1106 3015 l 2
 545 3015 344 2691 180 2253 c 1
 123 2253 l 1
 123 3072 l 1
EndSplineSet
Validated: 1
EndChar

StartChar: a
Encoding: 97 97 38
GlifName: a
Width: 2609
VWidth: 4730
Flags: HMW
LayerCount: 2
Fore
SplineSet
2597 258 m 1
 2503 53 2249 -41 1950 -41 c 0
 1635 -41 1368 57 1368 340 c 2
 1368 1249 l 2
 1368 1605 1241 1851 954 1851 c 0
 815 1851 712 1811 651 1774 c 1
 876 1831 1143 1720 1143 1466 c 0
 1143 1261 921 1110 696 1110 c 0
 450 1110 279 1270 279 1458 c 0
 279 1732 635 1917 1090 1917 c 0
 1827 1917 2146 1663 2146 1249 c 2
 2146 246 l 2
 2146 164 2200 102 2298 102 c 0
 2368 102 2474 127 2556 279 c 1
 2597 258 l 1
1032 1057 m 2
 1581 1057 l 1
 1581 999 l 1
 1319 999 l 2
 1131 999 963 799 963 545 c 0
 963 365 1016 254 1118 254 c 0
 1196 254 1368 327 1368 741 c 1
 1413 741 l 1
 1413 233 1143 -41 688 -41 c 0
 364 -41 135 160 135 463 c 0
 135 807 450 1057 1032 1057 c 2
EndSplineSet
Validated: 37
EndChar

StartChar: b
Encoding: 98 98 39
GlifName: b
Width: 2740
VWidth: 4730
Flags: HMW
LayerCount: 2
Fore
SplineSet
1077 942 m 0
 1077 1565 1311 1921 1757 1921 c 0
 2203 1921 2626 1556 2626 942 c 0
 2626 328 2203 -41 1757 -41 c 0
 1315 -41 1077 319 1077 942 c 0
1118 942 m 0
 1118 389 1368 74 1548 74 c 0
 1687 74 1745 311 1745 942 c 0
 1745 1573 1687 1806 1548 1806 c 0
 1368 1806 1118 1495 1118 942 c 0
340 3015 m 1
 53 3015 l 1
 53 3072 l 1
 1118 3072 l 1
 1118 0 l 1
 53 0 l 1
 53 57 l 1
 340 57 l 1
 340 3015 l 1
EndSplineSet
Validated: 5
EndChar

StartChar: c
Encoding: 99 99 40
GlifName: c
Width: 2236
VWidth: 4730
Flags: HMW
LayerCount: 2
Fore
SplineSet
1790 1692 m 1
 1720 1762 1527 1855 1339 1855 c 0
 1056 1855 1036 1327 1036 942 c 0
 1036 475 1131 66 1397 66 c 0
 1684 66 1909 267 2011 586 c 1
 2073 586 l 1
 1967 230 1708 -41 1212 -41 c 0
 553 -41 115 246 115 942 c 0
 115 1556 496 1925 1237 1925 c 0
 1696 1925 2101 1671 2101 1335 c 0
 2101 1085 1929 938 1683 938 c 0
 1458 938 1245 1045 1245 1352 c 0
 1245 1618 1458 1741 1618 1741 c 0
 1712 1741 1761 1721 1790 1692 c 1
EndSplineSet
Validated: 1
EndChar

StartChar: d
Encoding: 100 100 41
GlifName: d
Width: 2740
VWidth: 4730
Flags: HMW
LayerCount: 2
Fore
SplineSet
1667 942 m 0
 1667 319 1429 -41 983 -41 c 0
 537 -41 115 328 115 942 c 0
 115 1556 537 1921 983 1921 c 0
 1425 1921 1667 1565 1667 942 c 0
1622 942 m 0
 1622 1548 1352 1806 1196 1806 c 0
 1057 1806 995 1597 995 942 c 0
 995 287 1082 102 1221 102 c 0
 1377 102 1622 336 1622 942 c 0
2687 57 m 1
 2687 0 l 1
 1622 0 l 1
 1622 3015 l 1
 1335 3015 l 1
 1335 3072 l 1
 2400 3072 l 1
 2400 57 l 1
 2687 57 l 1
EndSplineSet
Validated: 5
EndChar

StartChar: e
Encoding: 101 101 42
GlifName: e
Width: 2228
VWidth: 4730
Flags: HMW
LayerCount: 2
Fore
SplineSet
389 1040 m 1
 389 1098 l 1
 1327 1098 l 1
 1323 1475 1319 1868 1159 1868 c 0
 999 1868 954 1491 954 1024 c 0
 954 434 1019 53 1343 53 c 0
 1679 53 1958 271 2060 586 c 1
 2114 586 l 1
 2008 230 1708 -41 1171 -41 c 0
 553 -41 115 287 115 942 c 0
 115 1597 541 1925 1159 1925 c 0
 1769 1925 2109 1486 2109 1040 c 1
 389 1040 l 1
EndSplineSet
Validated: 5
EndChar

StartChar: f
Encoding: 102 102 43
GlifName: f
Width: 1744
VWidth: 4730
Flags: HMW
LayerCount: 2
Fore
SplineSet
33 57 m 1
 1630 57 l 1
 1630 0 l 1
 33 0 l 1
 33 57 l 1
33 1884 m 1
 1712 1884 l 1
 1712 1827 l 1
 33 1827 l 1
 33 1884 l 1
2019 2875 m 1
 1958 2936 1831 3056 1606 3056 c 0
 1278 3056 1139 2732 1139 2212 c 2
 1139 0 l 1
 401 0 l 1
 401 2097 l 2
 401 2715 922 3113 1577 3113 c 0
 1950 3113 2204 2859 2204 2585 c 0
 2204 2335 2052 2167 1806 2167 c 0
 1581 2167 1372 2306 1372 2552 c 0
 1372 2785 1552 2957 1761 2957 c 0
 1884 2957 1986 2908 2019 2875 c 1
EndSplineSet
Validated: 5
EndChar

StartChar: g
Encoding: 103 103 44
GlifName: g
Width: 2756
VWidth: 4730
Flags: HMW
LayerCount: 2
Fore
SplineSet
184 274 m 0
 184 630 766 705 1155 705 c 1
 1151 676 l 1
 975 676 627 631 627 512 c 0
 627 422 840 406 1065 406 c 0
 1208 406 1364 410 1479 410 c 0
 1786 410 2204 221 2204 -336 c 0
 2204 -832 1794 -1065 1139 -1065 c 0
 635 -1065 53 -942 53 -569 c 0
 53 -213 545 -164 729 -164 c 2
 770 -164 l 1
 668 -217 647 -397 647 -446 c 0
 647 -806 881 -995 1192 -995 c 0
 1499 -995 1946 -946 1946 -594 c 0
 1946 -373 1732 -242 1466 -242 c 0
 1339 -242 1089 -242 999 -242 c 0
 630 -242 184 -103 184 274 c 0
954 1290 m 0
 954 905 975 713 1094 713 c 0
 1172 713 1233 905 1233 1290 c 0
 1233 1675 1172 1868 1094 1868 c 0
 1016 1868 954 1675 954 1290 c 0
156 1290 m 0
 156 1741 639 1925 1094 1925 c 0
 1549 1925 2032 1741 2032 1290 c 0
 2032 839 1549 655 1094 655 c 0
 639 655 156 839 156 1290 c 0
2572 1683 m 1
 2535 1773 2417 1847 2257 1847 c 0
 2036 1847 1815 1745 1733 1389 c 1
 1683 1421 l 1
 1765 1794 2011 1905 2257 1905 c 0
 2589 1905 2724 1667 2724 1511 c 0
 2724 1245 2556 1163 2413 1163 c 0
 2270 1163 2105 1253 2105 1470 c 0
 2105 1626 2216 1765 2392 1765 c 0
 2486 1765 2552 1720 2572 1683 c 1
EndSplineSet
Validated: 5
EndChar

StartChar: h
Encoding: 104 104 45
GlifName: h
Width: 2707
VWidth: 4730
Flags: HMW
LayerCount: 2
Fore
SplineSet
1589 1290 m 2
 1589 1634 1557 1679 1442 1679 c 0
 1278 1679 1118 1319 1118 913 c 1
 1077 913 l 1
 1077 1331 1200 1925 1786 1925 c 0
 2224 1925 2367 1663 2367 1307 c 2
 2367 0 l 1
 1589 0 l 1
 1589 1290 l 2
1425 57 m 1
 2654 57 l 1
 2654 0 l 1
 1425 0 l 1
 1425 57 l 1
53 57 m 1
 1282 57 l 1
 1282 0 l 1
 53 0 l 1
 53 57 l 1
340 3015 m 1
 53 3015 l 1
 53 3072 l 1
 1118 3072 l 1
 1118 0 l 1
 340 0 l 1
 340 3015 l 1
EndSplineSet
Validated: 5
EndChar

StartChar: i
Encoding: 105 105 46
GlifName: i
Width: 1441
VWidth: 4730
Flags: HMW
LayerCount: 2
Fore
SplineSet
74 57 m 1
 1425 57 l 1
 1425 0 l 1
 74 0 l 1
 74 57 l 1
258 2662 m 0
 258 2920 451 3113 709 3113 c 0
 967 3113 1159 2920 1159 2662 c 0
 1159 2404 967 2212 709 2212 c 0
 451 2212 258 2404 258 2662 c 0
360 1827 m 1
 74 1827 l 1
 74 1884 l 1
 1139 1884 l 1
 1139 0 l 1
 360 0 l 1
 360 1827 l 1
EndSplineSet
Validated: 5
EndChar

StartChar: j
Encoding: 106 106 47
GlifName: j
Width: 1486
VWidth: 4730
Flags: HMW
LayerCount: 2
Fore
SplineSet
328 2662 m 0
 328 2920 520 3113 778 3113 c 0
 1036 3113 1229 2920 1229 2662 c 0
 1229 2404 1036 2212 778 2212 c 0
 520 2212 328 2404 328 2662 c 0
1200 1884 m 1
 1200 -49 l 2
 1200 -586 680 -1065 66 -1065 c 0
 -348 -1065 -684 -856 -684 -549 c 0
 -684 -303 -479 -119 -246 -119 c 0
 -21 -119 188 -258 188 -504 c 0
 188 -729 17 -897 -266 -897 c 0
 -364 -897 -426 -843 -434 -786 c 1
 -397 -884 -242 -995 -4 -995 c 0
 488 -995 414 -434 414 86 c 2
 422 1827 l 1
 53 1827 l 1
 53 1884 l 1
 1200 1884 l 1
EndSplineSet
Validated: 37
EndChar

StartChar: k
Encoding: 107 107 48
GlifName: k
Width: 2834
VWidth: 4730
Flags: HMW
LayerCount: 2
Fore
SplineSet
2666 0 m 1
 1712 0 l 1
 1004 1110 l 1
 2200 1884 l 1
 2294 1884 l 1
 1651 1458 l 1
 2666 0 l 1
1483 57 m 1
 2822 57 l 1
 2822 0 l 1
 1483 0 l 1
 1483 57 l 1
2560 1827 m 1
 1647 1827 l 1
 1647 1884 l 1
 2560 1884 l 1
 2560 1827 l 1
53 57 m 1
 1364 57 l 1
 1364 0 l 1
 53 0 l 1
 53 57 l 1
422 3015 m 1
 53 3015 l 1
 53 3072 l 1
 1200 3072 l 1
 1200 0 l 1
 422 0 l 1
 422 3015 l 1
EndSplineSet
Validated: 5
EndChar

StartChar: l
Encoding: 108 108 49
GlifName: l
Width: 1622
VWidth: 4730
Flags: HMW
LayerCount: 2
Fore
SplineSet
53 57 m 1
 1569 57 l 1
 1569 0 l 1
 53 0 l 1
 53 57 l 1
422 3015 m 1
 53 3015 l 1
 53 3072 l 1
 1200 3072 l 1
 1200 0 l 1
 422 0 l 1
 422 3015 l 1
EndSplineSet
Validated: 5
EndChar

StartChar: m
Encoding: 109 109 50
GlifName: m
Width: 3792
VWidth: 4730
Flags: HMW
LayerCount: 2
Fore
SplineSet
2286 1307 m 2
 2286 0 l 1
 1507 0 l 1
 1507 1290 l 2
 1507 1634 1483 1708 1405 1708 c 0
 1266 1708 1118 1339 1118 913 c 1
 1077 913 l 1
 1077 1331 1159 1925 1745 1925 c 0
 2142 1925 2286 1663 2286 1307 c 2
53 57 m 1
 1262 57 l 1
 1262 0 l 1
 53 0 l 1
 53 57 l 1
1364 57 m 1
 2429 57 l 1
 2429 0 l 1
 1364 0 l 1
 1364 57 l 1
2531 57 m 1
 3740 57 l 1
 3740 0 l 1
 2531 0 l 1
 2531 57 l 1
340 1827 m 1
 53 1827 l 1
 53 1884 l 1
 1118 1884 l 1
 1118 0 l 1
 340 0 l 1
 340 1827 l 1
3453 1307 m 2
 3453 0 l 1
 2675 0 l 1
 2675 1290 l 2
 2675 1634 2654 1708 2572 1708 c 0
 2433 1708 2286 1339 2286 913 c 1
 2249 913 l 1
 2249 1331 2310 1925 2912 1925 c 0
 3309 1925 3453 1663 3453 1307 c 2
EndSplineSet
Validated: 5
EndChar

StartChar: n
Encoding: 110 110 51
GlifName: n
Width: 2707
VWidth: 4730
Flags: HMW
LayerCount: 2
Fore
SplineSet
1589 1290 m 2
 1589 1634 1557 1679 1442 1679 c 0
 1278 1679 1118 1319 1118 913 c 1
 1077 913 l 1
 1077 1331 1200 1925 1786 1925 c 0
 2224 1925 2367 1663 2367 1307 c 2
 2367 0 l 1
 1589 0 l 1
 1589 1290 l 2
1425 57 m 1
 2654 57 l 1
 2654 0 l 1
 1425 0 l 1
 1425 57 l 1
53 57 m 1
 1282 57 l 1
 1282 0 l 1
 53 0 l 1
 53 57 l 1
340 1827 m 1
 53 1827 l 1
 53 1884 l 1
 1118 1884 l 1
 1118 0 l 1
 340 0 l 1
 340 1827 l 1
EndSplineSet
Validated: 5
EndChar

StartChar: o
Encoding: 111 111 52
GlifName: o
Width: 2351
VWidth: 4730
Flags: HMW
LayerCount: 2
Fore
SplineSet
913 942 m 0
 913 352 1016 16 1176 16 c 0
 1336 16 1438 352 1438 942 c 0
 1438 1532 1336 1868 1176 1868 c 0
 1016 1868 913 1532 913 942 c 0
115 942 m 0
 115 1474 517 1925 1176 1925 c 0
 1835 1925 2236 1474 2236 942 c 0
 2236 410 1835 -41 1176 -41 c 0
 517 -41 115 410 115 942 c 0
EndSplineSet
Validated: 1
EndChar

StartChar: p
Encoding: 112 112 53
GlifName: p
Width: 2740
VWidth: 4730
Flags: HMW
LayerCount: 2
Fore
SplineSet
1077 942 m 0
 1077 1565 1311 1921 1757 1921 c 0
 2203 1921 2626 1556 2626 942 c 0
 2626 328 2203 -41 1757 -41 c 0
 1315 -41 1077 319 1077 942 c 0
1118 942 m 0
 1118 336 1401 74 1536 74 c 0
 1700 74 1745 364 1745 942 c 0
 1745 1520 1712 1806 1548 1806 c 0
 1392 1806 1118 1548 1118 942 c 0
53 -967 m 1
 1405 -967 l 1
 1405 -1024 l 1
 53 -1024 l 1
 53 -967 l 1
340 1827 m 1
 53 1827 l 1
 53 1884 l 1
 1118 1884 l 1
 1118 -1024 l 1
 340 -1024 l 1
 340 1827 l 1
EndSplineSet
Validated: 5
EndChar

StartChar: q
Encoding: 113 113 54
GlifName: q
Width: 2740
VWidth: 4730
Flags: HMW
LayerCount: 2
Fore
SplineSet
1667 942 m 0
 1667 319 1429 -41 983 -41 c 0
 537 -41 115 328 115 942 c 0
 115 1556 537 1921 983 1921 c 0
 1425 1921 1667 1565 1667 942 c 0
1622 942 m 0
 1622 1548 1352 1806 1196 1806 c 0
 1057 1806 995 1520 995 942 c 0
 995 364 1057 102 1196 102 c 0
 1405 102 1622 336 1622 942 c 0
2687 -967 m 1
 2687 -1024 l 1
 1335 -1024 l 1
 1335 -967 l 1
 2687 -967 l 1
2687 1884 m 1
 2687 1827 l 1
 2400 1827 l 1
 2400 -1024 l 1
 1622 -1024 l 1
 1622 1884 l 1
 2687 1884 l 1
EndSplineSet
Validated: 5
EndChar

StartChar: r
Encoding: 114 114 55
GlifName: r
Width: 2224
VWidth: 4730
Flags: HMW
LayerCount: 2
Fore
SplineSet
1954 1704 m 1
 1901 1802 1766 1860 1647 1860 c 0
 1201 1860 1118 1331 1118 913 c 1
 1077 913 l 1
 1077 1413 1134 1925 1671 1925 c 0
 1941 1925 2212 1713 2212 1389 c 0
 2212 1147 2048 934 1769 934 c 0
 1511 934 1323 1110 1323 1364 c 0
 1323 1679 1671 1864 1954 1704 c 1
53 57 m 1
 1405 57 l 1
 1405 0 l 1
 53 0 l 1
 53 57 l 1
340 1827 m 1
 53 1827 l 1
 53 1884 l 1
 1118 1884 l 1
 1118 0 l 1
 340 0 l 1
 340 1827 l 1
EndSplineSet
Validated: 37
EndChar

StartChar: s
Encoding: 115 115 56
GlifName: s
Width: 1908
VWidth: 4730
Flags: HMW
LayerCount: 2
Fore
SplineSet
1577 1458 m 1
 1552 1499 1356 1724 1327 1749 c 1
 1630 1925 l 1
 1671 1925 l 1
 1671 1352 l 1
 1618 1352 l 1
 1604.1411331 1387.33333333 1598.12290686 1422.66666667 1577 1458 c 1
1659 1352 m 1
 1618 1352 l 1
 1454 1585 1241 1860 885 1860 c 0
 725 1860 545 1794 545 1630 c 0
 545 1298 1815 1434 1815 623 c 0
 1815 136 1388 -41 1032 -41 c 0
 606 -41 340 213 156 655 c 1
 201 655 l 1
 402 249 672 20 1008 20 c 0
 1241 20 1434 98 1434 250 c 0
 1434 569 184 446 184 1290 c 0
 184 1675 492 1921 881 1921 c 0
 1282 1921 1495 1622 1659 1352 c 1
184 -41 m 1
 143 -41 l 1
 143 655 l 1
 201 655 l 1
 208.162586163 603.753916111 209.206346617 553.693356152 229 500 c 1
 258 447 467 201 492 176 c 1
 184 -41 l 1
EndSplineSet
EndChar

StartChar: t
Encoding: 116 116 57
GlifName: t
Width: 1650
VWidth: 4730
Flags: HMW
LayerCount: 2
Fore
SplineSet
12 1884 m 1
 1528 1884 l 1
 1528 1827 l 1
 12 1827 l 1
 12 1884 l 1
1651 418 m 1
 1553 156 1303 -29 889 -29 c 0
 430 -29 311 148 311 496 c 2
 311 2294 l 1
 557 2294 885 2315 1090 2417 c 1
 1090 434 l 2
 1090 229 1134 131 1245 131 c 0
 1360 131 1520 233 1602 438 c 1
 1651 418 l 1
EndSplineSet
Validated: 5
EndChar

StartChar: u
Encoding: 117 117 58
GlifName: u
Width: 2707
VWidth: 4730
Flags: HMW
LayerCount: 2
Fore
SplineSet
1118 1884 m 1
 1118 594 l 2
 1118 250 1151 205 1266 205 c 0
 1430 205 1589 565 1589 971 c 1
 1634 971 l 1
 1634 553 1508 -41 922 -41 c 0
 484 -41 340 222 340 578 c 2
 340 1827 l 1
 53 1827 l 1
 53 1884 l 1
 1118 1884 l 1
2367 57 m 1
 2654 57 l 1
 2654 0 l 1
 1589 0 l 1
 1589 1827 l 1
 1343 1827 l 1
 1343 1884 l 1
 2367 1884 l 1
 2367 57 l 1
EndSplineSet
Validated: 5
EndChar

StartChar: v
Encoding: 118 118 59
GlifName: v
Width: 2453
VWidth: 4730
Flags: HMW
LayerCount: 2
Fore
SplineSet
2474 1827 m 1
 1679 1827 l 1
 1679 1884 l 1
 2474 1884 l 1
 2474 1827 l 1
1376 1827 m 1
 -20 1827 l 1
 -20 1884 l 1
 1376 1884 l 1
 1376 1827 l 1
1556 561 m 1
 2081 1884 l 1
 2159 1884 l 1
 1389 -41 l 1
 1036 -41 l 1
 246 1884 l 1
 1106 1884 l 1
 1556 561 l 1
EndSplineSet
Validated: 5
EndChar

StartChar: w
Encoding: 119 119 60
GlifName: w
Width: 3624
VWidth: 4730
Flags: HMW
LayerCount: 2
Fore
SplineSet
1458 1827 m 1
 -20 1827 l 1
 -20 1884 l 1
 1458 1884 l 1
 1458 1827 l 1
3645 1827 m 1
 2769 1827 l 1
 2769 1884 l 1
 3645 1884 l 1
 3645 1827 l 1
1413 606 m 1
 1925 1925 l 1
 2478 1925 l 1
 2830 713 l 1
 3219 1884 l 1
 3289 1884 l 1
 2646 -41 l 1
 2290 -41 l 1
 1778 1368 l 1
 1229 -41 l 1
 872 -41 l 1
 246 1884 l 1
 1081 1884 l 1
 1413 606 l 1
EndSplineSet
Validated: 5
EndChar

StartChar: x
Encoding: 120 120 61
GlifName: x
Width: 2433
VWidth: 4730
Flags: HMW
LayerCount: 2
Fore
SplineSet
1016 57 m 1
 2413 57 l 1
 2413 0 l 1
 1016 0 l 1
 1016 57 l 1
20 57 m 1
 795 57 l 1
 795 0 l 1
 20 0 l 1
 20 57 l 1
1397 1827 m 1
 20 1827 l 1
 20 1884 l 1
 1397 1884 l 1
 1397 1827 l 1
2372 1827 m 1
 1659 1827 l 1
 1659 1884 l 1
 2372 1884 l 1
 2372 1827 l 1
2228 0 m 1
 1327 0 l 1
 246 1884 l 1
 1106 1884 l 1
 2228 0 l 1
340 0 m 1
 262 0 l 1
 2011 1884 l 1
 2089 1884 l 1
 340 0 l 1
EndSplineSet
Validated: 5
EndChar

StartChar: y
Encoding: 121 121 62
GlifName: y
Width: 2613
VWidth: 4730
Flags: HMW
LayerCount: 2
Fore
SplineSet
1663 1827 m 1
 -61 1827 l 1
 -61 1884 l 1
 1663 1884 l 1
 1663 1827 l 1
2675 1827 m 1
 1876 1827 l 1
 1876 1884 l 1
 2675 1884 l 1
 2675 1827 l 1
1802 737 m 1
 1335 -115 l 1
 242 1884 l 1
 1184 1884 l 1
 1802 737 l 1
1044 -631 m 1
 2343 1884 l 1
 2421 1884 l 1
 1061 -745 l 2
 971 -917 828 -1028 631 -1028 c 0
 406 -1028 213 -877 213 -639 c 0
 213 -422 389 -221 643 -221 c 0
 872 -221 1044 -422 1044 -631 c 1
EndSplineSet
Validated: 5
EndChar

StartChar: z
Encoding: 122 122 63
GlifName: z
Width: 2072
VWidth: 4730
Flags: HMW
LayerCount: 2
Fore
SplineSet
877 1827 m 2
 574 1827 328 1594 205 1180 c 1
 147 1180 l 1
 147 1884 l 1
 1954 1884 l 1
 1954 1827 l 1
 885 57 l 1
 1196 57 l 2
 1593 57 1843 246 1966 754 c 1
 2019 754 l 1
 2019 0 l 1
 33 0 l 1
 33 57 l 1
 1098 1827 l 1
 877 1827 l 2
EndSplineSet
Validated: 1
EndChar

StartChar: comma
Encoding: 44 44 65
GlifName: comma
Width: 1372
Flags: HMW
LayerCount: 2
Fore
SplineSet
164 446 m 0
 164 704 405 934 684 934 c 0
 967 934 1217 684 1217 262 c 0
 1217 -270 770 -639 156 -639 c 1
 156 -582 l 1
 701 -582 1188 -290 1147 369 c 1
 1086 140 873 -41 635 -41 c 0
 361 -41 164 188 164 446 c 0
EndSplineSet
Validated: 33
EndChar

StartChar: exclam
Encoding: 33 33 67
GlifName: exclam
Width: 1802
Flags: HMW
LayerCount: 2
Fore
SplineSet
1384 2535 m 0
 1339 2060 926 1672 926 1262 c 1
 868 1262 l 1
 868 1672 455 2060 410 2535 c 0
 406 2564 410 2588 410 2613 c 0
 410 2883 582 3105 897 3105 c 0
 1212 3105 1389 2883 1389 2613 c 0
 1389 2588 1388 2564 1384 2535 c 0
EndSplineSet
Refer: 1 46 N 1 0 0 1 246 0 2
Validated: 1
EndChar

StartChar: quotesingle
Encoding: 39 39 70
GlifName: quotesingle
Width: 1310
Flags: HMW
LayerCount: 2
Fore
SplineSet
1102 2626 m 24
 1057 2319 684 2163 684 1712 c 1
 627 1712 l 1
 627 2163 254 2319 209 2626 c 24
 205 2655 205 2674 205 2699 c 0
 205 2941 413 3113 655 3113 c 0
 897 3113 1106 2941 1106 2699 c 0
 1106 2674 1106 2655 1102 2626 c 24
EndSplineSet
Validated: 1
EndChar

StartChar: question
Encoding: 63 63 75
GlifName: question
Width: 2539
Flags: HMW
LayerCount: 2
Fore
SplineSet
1024 1507 m 1
 1339 1634 1430 1913 1430 2294 c 0
 1430 2679 1389 3019 1065 3019 c 0
 750 3019 455 2782 389 2589 c 1
 409 2622 516 2703 672 2703 c 0
 914 2703 1122 2560 1122 2314 c 0
 1122 2048 950 1880 684 1880 c 0
 397 1880 246 2069 246 2339 c 0
 246 2716 630 3113 1253 3113 c 0
 1912 3113 2335 2786 2335 2294 c 0
 2335 1823 1863 1507 1081 1470 c 1
 1081 1143 l 1
 1024 1143 l 1
 1024 1507 l 1
EndSplineSet
Refer: 1 46 N 1 0 0 1 528 0 2
Validated: 1
EndChar

StartChar: parenleft
Encoding: 40 40 76
GlifName: parenleft
Width: 1564
Flags: HMW
LayerCount: 2
Fore
SplineSet
1511 -651 m 1
 1487 -696 l 1
 819 -409 266 377 266 1331 c 0
 266 2285 819 2990 1487 3277 c 1
 1511 3232 l 1
 1208 3027 1147 2117 1147 1331 c 0
 1147 545 1208 -446 1511 -651 c 1
EndSplineSet
Validated: 1
EndChar

StartChar: at
Encoding: 64 64 79
GlifName: at
Width: 4136
VWidth: 4730
Flags: HMW
LayerCount: 2
Fore
SplineSet
2257 1479 m 0
 2257 815 2007 287 1475 287 c 0
 1086 287 836 516 836 942 c 0
 836 1556 1262 2167 1827 2167 c 0
 2216 2167 2257 1815 2257 1479 c 0
2208 1417 m 0
 2208 1589 2208 1896 2118 1896 c 0
 1983 1896 1741 1491 1741 983 c 0
 1741 709 1803 561 1901 561 c 0
 2028 561 2208 921 2208 1417 c 0
2130 860 m 2
 2425 2130 l 1
 3285 2130 l 1
 2986 840 l 2
 2941 639 2875 418 3043 418 c 0
 3424 418 3854 962 3854 1642 c 0
 3854 2371 3404 3178 2392 3178 c 0
 1233 3178 283 2117 283 864 c 0
 283 -377 995 -819 1716 -819 c 0
 2384 -819 2814 -622 3174 -221 c 1
 3215 -262 l 1
 2871 -663 2384 -877 1716 -877 c 0
 966 -877 225 -422 225 864 c 0
 225 2146 1196 3236 2396 3236 c 0
 3432 3236 3912 2392 3912 1642 c 0
 3912 946 3530 279 2707 279 c 0
 2097 279 2073 606 2130 860 c 2
EndSplineSet
Validated: 37
EndChar

StartChar: dollar
Encoding: 36 36 80
GlifName: dollar
Width: 2600
Flags: HMW
LayerCount: 2
Fore
SplineSet
1307 3400 m 1
 1376 3400 l 1
 1376 -328 l 1
 1307 -328 l 1
 1307 3400 l 1
1024 3400 m 1
 1090 3400 l 1
 1090 -328 l 1
 1024 -328 l 1
 1024 3400 l 1
2118 2691 m 1
 1995 2892 1659 3043 1286 3043 c 0
 1016 3043 778 2916 778 2658 c 0
 778 1994 2437 2171 2437 942 c 0
 2437 369 1990 -61 1290 -61 c 0
 487 -61 102 328 102 676 c 0
 102 946 270 1135 532 1135 c 0
 737 1135 918 962 918 700 c 0
 918 454 667 352 487 352 c 0
 376 352 279 397 238 467 c 1
 361 250 663 4 1249 4 c 0
 1683 4 1864 197 1864 496 c 0
 1864 1241 205 921 205 2232 c 0
 205 2764 761 3113 1257 3113 c 0
 1740 3113 2273 2892 2273 2478 c 0
 2273 2208 2126 2060 1864 2060 c 0
 1659 2060 1479 2183 1479 2433 c 0
 1479 2666 1663 2802 1843 2802 c 0
 1933 2802 2036 2773 2118 2691 c 1
EndSplineSet
Validated: 5
EndChar

StartChar: numbersign
Encoding: 35 35 81
GlifName: numbersign
Width: 2580
Flags: HMW
LayerCount: 2
Fore
SplineSet
123 1065 m 1
 2335 1065 l 1
 2335 1008 l 1
 123 1008 l 1
 123 1065 l 1
246 2126 m 1
 2458 2126 l 1
 2458 2068 l 1
 246 2068 l 1
 246 2126 l 1
1847 3088 m 1
 1905 3092 l 1
 1495 -20 l 1
 1438 -25 l 1
 1847 3088 l 1
1044 3092 m 1
 1102 3092 l 1
 692 -20 l 1
 635 -20 l 1
 1044 3092 l 1
EndSplineSet
Validated: 5
EndChar

StartChar: slash
Encoding: 47 47 82
GlifName: slash
Width: 2129
Flags: HMW
LayerCount: 2
Fore
SplineSet
1909 3195 m 1
 1966 3195 l 1
 221 -614 l 1
 164 -614 l 1
 1909 3195 l 1
EndSplineSet
Validated: 1
EndChar

StartChar: percent
Encoding: 37 37 83
GlifName: percent
Width: 4259
Flags: HMW
LayerCount: 2
Fore
SplineSet
2970 860 m 0
 2970 209 3035 16 3133 16 c 0
 3231 16 3297 209 3297 860 c 0
 3297 1511 3231 1704 3133 1704 c 0
 3035 1704 2970 1511 2970 860 c 0
2150 860 m 0
 2150 1446 2670 1761 3133 1761 c 0
 3596 1761 4116 1446 4116 860 c 0
 4116 274 3514 -41 3133 -41 c 0
 2670 -41 2150 274 2150 860 c 0
3146 3072 m 1
 3215 3072 l 1
 1114 0 l 1
 1044 0 l 1
 3146 3072 l 1
963 2212 m 0
 963 1561 1028 1368 1126 1368 c 0
 1224 1368 1290 1561 1290 2212 c 0
 1290 2863 1224 3056 1126 3056 c 0
 1028 3056 963 2863 963 2212 c 0
143 2212 m 0
 143 2798 663 3113 1126 3113 c 0
 1589 3113 2109 2798 2109 2212 c 0
 2109 1626 1507 1311 1126 1311 c 0
 663 1311 143 1626 143 2212 c 0
EndSplineSet
Validated: 1
EndChar

StartChar: hyphen
Encoding: 45 45 85
GlifName: hyphen
Width: 1474
Flags: HMW
LayerCount: 2
Fore
SplineSet
246 1155 m 1
 1229 1155 l 1
 1229 1098 l 1
 246 1098 l 1
 246 1155 l 1
EndSplineSet
Validated: 1
EndChar

StartChar: plus
Encoding: 43 43 87
GlifName: plus
Width: 2170
Flags: HMW
LayerCount: 2
Fore
SplineSet
1057 451 m 1
 1057 2130 l 1
 1114 2130 l 1
 1114 451 l 1
 1057 451 l 1
246 1323 m 1
 1925 1323 l 1
 1925 1266 l 1
 246 1266 l 1
 246 1323 l 1
EndSplineSet
Validated: 5
EndChar

StartChar: less
Encoding: 60 60 89
GlifName: less
Width: 2293
Flags: HMW
LayerCount: 2
Fore
SplineSet
246 1565 m 1
 246 1622 l 1
 2048 2458 l 1
 2048 2400 l 1
 246 1565 l 1
246 1552 m 1
 246 1610 l 1
 2048 774 l 1
 2048 717 l 1
 246 1552 l 1
EndSplineSet
Validated: 5
EndChar

StartChar: backslash
Encoding: 92 92 91
GlifName: backslash
Width: 2129
Flags: HMW
LayerCount: 2
Fore
SplineSet
233 3195 m 1
 1966 -614 l 1
 1896 -614 l 1
 164 3195 l 1
 233 3195 l 1
EndSplineSet
Validated: 1
EndChar

StartChar: bracketleft
Encoding: 91 91 92
GlifName: bracketleft
Width: 1576
Flags: HMW
LayerCount: 2
Fore
SplineSet
1454 -614 m 1
 225 -614 l 1
 225 -557 l 1
 1454 -557 l 1
 1454 -614 l 1
1454 3138 m 1
 225 3138 l 1
 225 3195 l 1
 1454 3195 l 1
 1454 3138 l 1
1085 3195 m 1
 1085 -614 l 1
 225 -614 l 1
 225 3195 l 1
 1085 3195 l 1
EndSplineSet
Validated: 5
EndChar

StartChar: braceleft
Encoding: 123 123 93
GlifName: braceleft
Width: 1605
VWidth: 4730
Flags: HMW
LayerCount: 2
Fore
SplineSet
1483 3195 m 1
 1483 3138 l 1
 1229 3138 1098 2908 1098 2650 c 0
 1098 2421 1237 2216 1237 1888 c 0
 1237 1548 1020 1360 225 1278 c 1
 225 1319 l 1
 348 1360 471 1454 471 1622 c 0
 471 1880 225 2065 225 2544 c 0
 225 2990 520 3195 1483 3195 c 1
1483 -614 m 1
 520 -614 225 -405 225 41 c 0
 225 520 471 705 471 963 c 0
 471 1131 348 1221 225 1262 c 1
 225 1307 l 1
 1020 1225 1237 1036 1237 696 c 0
 1237 368 1098 163 1098 -66 c 0
 1098 -324 1229 -557 1483 -557 c 1
 1483 -614 l 1
EndSplineSet
Validated: 5
EndChar

StartChar: bar
Encoding: 124 124 96
GlifName: bar
Width: 942
VWidth: 4730
Flags: HMW
LayerCount: 2
Fore
SplineSet
442 3195 m 1
 500 3195 l 1
 500 -1024 l 1
 442 -1024 l 1
 442 3195 l 1
EndSplineSet
Validated: 1
EndChar

StartChar: cent
Encoding: 162 162 98
GlifName: cent
Width: 2236
VWidth: 4730
Flags: HMW
LayerCount: 2
Fore
SplineSet
1286 2273 m 1
 1286 -348 l 1
 1233 -348 l 1
 1233 2273 l 1
 1286 2273 l 1
EndSplineSet
Refer: 40 99 N 1 0 0 1 0 0 2
Validated: 5
EndChar

StartChar: sterling
Encoding: 163 163 99
GlifName: sterling
Width: 2813
VWidth: 4730
Flags: HMW
LayerCount: 2
Fore
SplineSet
2712 1135 m 1
 2712 131 2461 -123 1892 -123 c 0
 1331 -123 1024 123 766 123 c 0
 598 123 393 41 352 -82 c 1
 319 -82 l 1
 360 221 856 889 1319 889 c 0
 1647 889 1827 750 2056 750 c 0
 2343 750 2654 799 2654 1135 c 1
 2712 1135 l 1
1905 1647 m 1
 1905 1589 l 1
 61 1589 l 1
 61 1647 l 1
 1905 1647 l 1
319 2253 m 0
 319 2826 791 3113 1573 3113 c 0
 2237 3113 2671 2675 2671 2339 c 0
 2671 2048 2486 1819 2220 1819 c 0
 1954 1819 1704 2007 1704 2294 c 0
 1704 2560 1941 2765 2183 2765 c 0
 2335 2765 2404 2691 2437 2658 c 1
 2310 2838 2020 3015 1737 3015 c 0
 1454 3015 1266 2884 1266 2499 c 0
 1266 2093 1495 1986 1495 1597 c 0
 1495 819 299 840 352 -82 c 1
 295 -82 l 1
 217 487 651 807 651 1069 c 0
 651 1536 319 1782 319 2253 c 0
EndSplineSet
Validated: 37
EndChar

StartChar: section
Encoding: 167 167 101
GlifName: section
Width: 2072
VWidth: 4730
Flags: HMW
LayerCount: 2
Fore
SplineSet
676 2699 m 0
 676 2265 1876 2224 1876 1597 c 0
 1876 1261 1634 1191 1454 1085 c 1
 1401 1085 l 1
 1450 1142 1540 1171 1540 1327 c 0
 1540 1700 295 1663 295 2408 c 0
 295 2834 643 3113 1114 3113 c 0
 1433 3113 1909 3010 1909 2576 c 0
 1909 2367 1765 2200 1540 2200 c 0
 1335 2200 1196 2364 1196 2552 c 0
 1196 2724 1351 2888 1552 2888 c 0
 1658 2888 1728 2839 1761 2806 c 1
 1614 2990 1356 3052 1114 3052 c 0
 901 3052 676 2900 676 2699 c 0
1901 664 m 0
 1901 238 1552 -41 999 -41 c 0
 639 -41 123 103 123 496 c 0
 123 705 267 872 492 872 c 0
 697 872 836 708 836 520 c 0
 836 348 688 201 487 201 c 0
 364 201 294 262 274 295 c 1
 405 111 700 20 999 20 c 0
 1339 20 1520 213 1520 373 c 0
 1520 807 238 786 238 1413 c 0
 238 1749 479 1901 659 2007 c 1
 713 2007 l 1
 668 1958 578 1904 578 1765 c 0
 578 1392 1901 1409 1901 664 c 0
EndSplineSet
Validated: 5
EndChar

StartChar: asciitilde
Encoding: 126 126 104
GlifName: asciitilde
Width: 2818
VWidth: 4730
Flags: HMW
LayerCount: 2
Fore
SplineSet
815 1667 m 0
 598 1667 467 1577 467 1405 c 1
 410 1405 l 1
 410 1876 614 2212 1020 2212 c 0
 1471 2212 1552 1827 1962 1827 c 0
 2220 1827 2351 1917 2351 2089 c 1
 2408 2089 l 1
 2408 1618 2204 1282 1798 1282 c 0
 1278 1282 1253 1667 815 1667 c 0
EndSplineSet
Validated: 1
EndChar

StartChar: copyright
Encoding: 169 169 105
GlifName: copyright
Width: 3563
Flags: HMW
LayerCount: 2
Fore
SplineSet
205 1536 m 0
 205 2408 910 3113 1782 3113 c 0
 2654 3113 3359 2408 3359 1536 c 0
 3359 664 2654 -41 1782 -41 c 0
 910 -41 205 664 205 1536 c 0
262 1536 m 0
 262 696 942 16 1782 16 c 0
 2622 16 3301 696 3301 1536 c 0
 3301 2376 2622 3056 1782 3056 c 0
 942 3056 262 2376 262 1536 c 0
EndSplineSet
Refer: 14 67 N 0.6 0 0 0.6 786 614 2
Validated: 5
EndChar

StartChar: registered
Encoding: 174 174 106
GlifName: registered
Width: 3563
Flags: HMW
LayerCount: 2
Fore
SplineSet
205 1536 m 0
 205 2408 910 3113 1782 3113 c 0
 2654 3113 3359 2408 3359 1536 c 0
 3359 664 2654 -41 1782 -41 c 0
 910 -41 205 664 205 1536 c 0
262 1536 m 0
 262 696 942 16 1782 16 c 0
 2622 16 3301 696 3301 1536 c 0
 3301 2376 2622 3056 1782 3056 c 0
 942 3056 262 2376 262 1536 c 0
EndSplineSet
Refer: 29 82 N 0.6 0 0 0.6 852 606 2
Validated: 5
EndChar

StartChar: logicalnot
Encoding: 172 172 107
GlifName: logicalnot
Width: 1990
Flags: HMW
LayerCount: 2
Fore
SplineSet
1688 2462 m 1
 246 2462 l 1
 246 2519 l 1
 1745 2519 l 1
 1745 1692 l 1
 1688 1692 l 1
 1688 2462 l 1
EndSplineSet
Validated: 1
EndChar

StartChar: guillemotleft
Encoding: 171 171 108
GlifName: guillemotleft
Width: 3092
Flags: HMW
LayerCount: 2
Fore
SplineSet
2257 1589 m 1
 2875 623 l 1
 2847 594 l 1
 1249 1552 l 1
 1249 1622 l 1
 2847 2580 l 1
 2875 2552 l 1
 2257 1589 l 1
1028 1589 m 1
 1729 623 l 1
 1700 594 l 1
 102 1552 l 1
 102 1622 l 1
 1700 2580 l 1
 1729 2552 l 1
 1028 1589 l 1
EndSplineSet
Validated: 1
EndChar

StartChar: mu
Encoding: 181 181 111
GlifName: mu
Width: 2605
VWidth: 4730
Flags: HMW
LayerCount: 2
Fore
SplineSet
1028 -504 m 0
 1163 -504 1270 -622 1270 -778 c 0
 1270 -938 1184 -1065 885 -1065 c 0
 598 -1065 352 -865 352 -496 c 2
 352 1315 l 1
 406 1315 l 1
 406 -496 l 2
 406 -840 619 -1016 922 -1016 c 1
 922 -1016 l 1
 816 -942 782 -839 782 -737 c 0
 782 -602 893 -504 1028 -504 c 0
EndSplineSet
Refer: 58 117 N 1 0 0 1 0 0 2
Validated: 5
EndChar

StartChar: asciicircum
Encoding: 94 94 113
GlifName: asciicircum
Width: 2232
Flags: HMW
LayerCount: 2
Fore
SplineSet
1114 2961 m 1
 438 2552 l 1
 410 2580 l 1
 983 3154 l 1
 1249 3154 l 1
 1823 2580 l 1
 1794 2552 l 1
 1114 2961 l 1
EndSplineSet
Validated: 1
EndChar

StartChar: degree
Encoding: 176 176 115
GlifName: degree
Width: 1310
Flags: HMW
LayerCount: 2
Fore
SplineSet
164 2785 m 0
 164 3055 385 3277 655 3277 c 0
 925 3277 1147 3055 1147 2785 c 0
 1147 2515 925 2294 655 2294 c 0
 385 2294 164 2515 164 2785 c 0
340 2785 m 0
 340 2605 475 2470 655 2470 c 0
 835 2470 971 2605 971 2785 c 0
 971 2965 835 3101 655 3101 c 0
 475 3101 340 2965 340 2785 c 0
EndSplineSet
Validated: 1
EndChar

StartChar: onequarter
Encoding: 188 188 119
GlifName: onequarter
Width: 2871
Flags: HMW
LayerCount: 2
Fore
SplineSet
2097 2662 m 1
 2154 2662 l 1
 221 -410 l 1
 164 -410 l 1
 2097 2662 l 1
EndSplineSet
Refer: 6 52 N 0.6 0 0 0.6 1106 -422 2
Refer: 3 49 N 0.6 0 0 0.6 -33 1458 2
Validated: 5
EndChar

StartChar: onehalf
Encoding: 189 189 120
GlifName: onehalf
Width: 2990
Flags: HMW
LayerCount: 2
Fore
SplineSet
2097 2662 m 1
 2154 2662 l 1
 221 -410 l 1
 164 -410 l 1
 2097 2662 l 1
EndSplineSet
Refer: 4 50 N 0.6 0 0 0.6 1397 -414 2
Refer: 3 49 N 0.6 0 0 0.6 -33 1458 2
Validated: 5
EndChar

StartChar: threequarters
Encoding: 190 190 121
GlifName: threequarters
Width: 3117
Flags: HMW
LayerCount: 2
Fore
SplineSet
2343 2662 m 1
 2400 2662 l 1
 467 -410 l 1
 410 -410 l 1
 2343 2662 l 1
EndSplineSet
Refer: 5 51 N 0.6 0 0 0.6 20 1450 2
Refer: 6 52 N 0.6 0 0 0.6 1352 -422 2
Validated: 5
EndChar

StartChar: grave
Encoding: 96 96 123
GlifName: grave
Width: 1740
Flags: HMW
LayerCount: 2
Fore
SplineSet
614 2785 m 2
 413 2744 225 2891 225 3092 c 0
 225 3293 450 3481 655 3391 c 2
 1507 3019 l 1
 1495 2961 l 1
 614 2785 l 2
EndSplineSet
Validated: 33
EndChar

StartChar: acute
Encoding: 180 180 124
GlifName: acute
Width: 1740
Flags: HMW
LayerCount: 2
Fore
SplineSet
1126 2785 m 2
 246 2961 l 1
 233 3019 l 1
 1085 3391 l 2
 1290 3481 1516 3293 1516 3092 c 0
 1516 2891 1327 2744 1126 2785 c 2
EndSplineSet
Validated: 33
EndChar

StartChar: cedilla
Encoding: 184 184 128
GlifName: cedilla
Width: 2252
Flags: HMW
LayerCount: 2
Fore
SplineSet
1184 -573 m 0
 1184 -356 1032 -324 889 -324 c 1
 1257 168 l 1
 1335 168 l 1
 1090 -160 l 1
 1536 -172 1802 -263 1802 -492 c 0
 1802 -697 1605 -901 864 -901 c 1
 864 -844 l 1
 1106 -844 1184 -729 1184 -573 c 0
EndSplineSet
Validated: 1
EndChar

StartChar: divide
Encoding: 247 247 131
GlifName: divide
Width: 2703
Flags: HMW
LayerCount: 2
Fore
SplineSet
164 1647 m 1
 2539 1647 l 1
 2539 1590 l 1
 164 1590 l 1
 164 1647 l 1
860 738 m 0
 860 1008 1081 1229 1351 1229 c 0
 1621 1229 1843 1008 1843 738 c 0
 1843 468 1621 246 1351 246 c 0
 1081 246 860 468 860 738 c 0
860 2438 m 0
 860 2708 1081 2929 1351 2929 c 0
 1621 2929 1843 2708 1843 2438 c 0
 1843 2168 1621 1946 1351 1946 c 0
 1081 1946 860 2168 860 2438 c 0
EndSplineSet
EndChar

StartChar: ring
Encoding: 730 730 271
GlifName: ring
Width: 1310
VWidth: 0
Flags: HMW
LayerCount: 2
Fore
SplineSet
205 2785 m 0
 205 2994 364 3154 655 3154 c 0
 946 3154 1106 2994 1106 2785 c 0
 1106 2576 946 2417 655 2417 c 0
 364 2417 205 2576 205 2785 c 0
553 2785 m 0
 553 2556 585 2474 655 2474 c 0
 725 2474 758 2556 758 2785 c 0
 758 3014 725 3097 655 3097 c 0
 585 3097 553 3014 553 2785 c 0
EndSplineSet
Validated: 1
EndChar

StartChar: tilde
Encoding: 732 732 272
GlifName: tilde
Width: 1835
VWidth: 0
Flags: HMW
LayerCount: 2
Fore
SplineSet
463 2617 m 0
 340 2617 262 2507 262 2417 c 1
 205 2417 l 1
 205 2765 286 3101 610 3101 c 0
 979 3101 1061 2777 1372 2777 c 0
 1495 2777 1573 2888 1573 2978 c 1
 1630 2978 l 1
 1630 2589 1631 2294 1266 2294 c 0
 910 2294 803 2617 463 2617 c 0
EndSplineSet
Validated: 33
EndChar

StartChar: AE
Encoding: 198 198 274
GlifName: A_E_
Width: 4464
Flags: HMW
LayerCount: 2
Fore
SplineSet
2150 3072 m 1
 2216 3072 l 1
 455 0 l 1
 377 0 l 1
 2150 3072 l 1
61 57 m 1
 963 57 l 1
 963 0 l 1
 61 0 l 1
 61 57 l 1
1004 1032 m 1
 2191 1032 l 1
 2191 975 l 1
 1004 975 l 1
 1004 1032 l 1
2150 3072 m 1
 3031 3072 l 1
 3031 0 l 1
 2150 0 l 1
 2150 3072 l 1
2150 3072 m 1
 4301 3072 l 1
 4301 2232 l 1
 4243 2232 l 1
 4120 2670 3756 3015 3318 3015 c 2
 2150 3015 l 1
 2150 3072 l 1
4342 0 m 1
 1782 0 l 1
 1782 57 l 1
 3277 57 l 2
 3797 57 4161 402 4284 922 c 1
 4342 922 l 1
 4342 0 l 1
3670 1016 m 1
 3547 1290 3305 1561 3072 1561 c 2
 2826 1561 l 1
 2826 1618 l 1
 3072 1618 l 2
 3305 1618 3547 1868 3670 2142 c 1
 3727 2142 l 1
 3727 1016 l 1
 3670 1016 l 1
EndSplineSet
Validated: 5
EndChar

StartChar: ae
Encoding: 230 230 277
GlifName: ae
Width: 3698
VWidth: 4730
Flags: HMW
LayerCount: 2
Fore
SplineSet
287 1458 m 0
 287 1732 643 1917 1098 1917 c 0
 1630 1917 2032 1663 2032 1249 c 1
 2052 741 l 1
 2052 233 1479 -41 983 -41 c 0
 414 -41 143 160 143 463 c 0
 143 807 458 1069 1040 1069 c 2
 1958 1069 l 1
 1958 1012 l 1
 1327 1012 l 2
 1139 1012 971 799 971 463 c 0
 971 189 1049 33 1151 33 c 0
 1262 33 1376 205 1376 537 c 2
 1376 1249 l 2
 1376 1523 1291 1855 963 1855 c 0
 840 1855 713 1818 643 1761 c 1
 872 1835 1151 1720 1151 1466 c 0
 1151 1261 930 1110 705 1110 c 0
 459 1110 287 1270 287 1458 c 0
2810 1094 m 1
 2806 1471 2802 1868 2642 1868 c 0
 2482 1868 2437 1491 2437 1024 c 0
 2437 557 2470 53 2818 53 c 0
 3166 53 3437 267 3539 586 c 1
 3596 586 l 1
 3490 230 3191 -41 2654 -41 c 0
 2158 -41 1761 287 1761 942 c 0
 1761 1597 2146 1925 2642 1925 c 0
 3252 1925 3592 1486 3592 1040 c 1
 2105 1040 l 1
 2105 1094 l 1
 2810 1094 l 1
EndSplineSet
Validated: 37
EndChar

StartChar: perthousand
Encoding: 8240 8240 285
GlifName: perthousand
Width: 6348
Flags: HMW
LayerCount: 2
Fore
SplineSet
5059 860 m 0
 5059 209 5124 16 5222 16 c 0
 5320 16 5386 209 5386 860 c 0
 5386 1511 5320 1704 5222 1704 c 0
 5124 1704 5059 1511 5059 860 c 0
4239 860 m 0
 4239 1446 4759 1761 5222 1761 c 0
 5685 1761 6205 1446 6205 860 c 0
 6205 274 5603 -41 5222 -41 c 0
 4759 -41 4239 274 4239 860 c 0
2970 860 m 0
 2970 209 3035 16 3133 16 c 0
 3231 16 3297 209 3297 860 c 0
 3297 1511 3231 1704 3133 1704 c 0
 3035 1704 2970 1511 2970 860 c 0
2150 860 m 0
 2150 1446 2670 1761 3133 1761 c 0
 3596 1761 4116 1446 4116 860 c 0
 4116 274 3514 -41 3133 -41 c 0
 2670 -41 2150 274 2150 860 c 0
3146 3072 m 1
 3215 3072 l 1
 1114 0 l 1
 1044 0 l 1
 3146 3072 l 1
963 2212 m 0
 963 1561 1028 1368 1126 1368 c 0
 1224 1368 1290 1561 1290 2212 c 0
 1290 2863 1224 3056 1126 3056 c 0
 1028 3056 963 2863 963 2212 c 0
143 2212 m 0
 143 2798 663 3113 1126 3113 c 0
 1589 3113 2109 2798 2109 2212 c 0
 2109 1626 1507 1311 1126 1311 c 0
 663 1311 143 1626 143 2212 c 0
EndSplineSet
Validated: 1
EndChar

StartChar: uni2031
Encoding: 8241 8241 286
GlifName: uni2031
Width: 8437
Flags: HMW
LayerCount: 2
Fore
SplineSet
7148 860 m 0
 7148 209 7213 16 7311 16 c 0
 7409 16 7475 209 7475 860 c 0
 7475 1511 7409 1704 7311 1704 c 0
 7213 1704 7148 1511 7148 860 c 0
6328 860 m 0
 6328 1446 6848 1761 7311 1761 c 0
 7774 1761 8294 1446 8294 860 c 0
 8294 274 7692 -41 7311 -41 c 0
 6848 -41 6328 274 6328 860 c 0
5059 860 m 0
 5059 209 5124 16 5222 16 c 0
 5320 16 5386 209 5386 860 c 0
 5386 1511 5320 1704 5222 1704 c 0
 5124 1704 5059 1511 5059 860 c 0
4239 860 m 0
 4239 1446 4759 1761 5222 1761 c 0
 5685 1761 6205 1446 6205 860 c 0
 6205 274 5603 -41 5222 -41 c 0
 4759 -41 4239 274 4239 860 c 0
2970 860 m 0
 2970 209 3035 16 3133 16 c 0
 3231 16 3297 209 3297 860 c 0
 3297 1511 3231 1704 3133 1704 c 0
 3035 1704 2970 1511 2970 860 c 0
2150 860 m 0
 2150 1446 2670 1761 3133 1761 c 0
 3596 1761 4116 1446 4116 860 c 0
 4116 274 3514 -41 3133 -41 c 0
 2670 -41 2150 274 2150 860 c 0
3146 3072 m 1
 3215 3072 l 1
 1114 0 l 1
 1044 0 l 1
 3146 3072 l 1
963 2212 m 0
 963 1561 1028 1368 1126 1368 c 0
 1224 1368 1290 1561 1290 2212 c 0
 1290 2863 1224 3056 1126 3056 c 0
 1028 3056 963 2863 963 2212 c 0
143 2212 m 0
 143 2798 663 3113 1126 3113 c 0
 1589 3113 2109 2798 2109 2212 c 0
 2109 1626 1507 1311 1126 1311 c 0
 663 1311 143 1626 143 2212 c 0
EndSplineSet
Validated: 1
EndChar

StartChar: uniFB00
Encoding: 64256 64256 290
GlifName: uniF_B_00
Width: 3153
VWidth: 4730
Flags: HMW
LayerCount: 2
Fore
SplineSet
41 57 m 1
 3031 57 l 1
 3031 0 l 1
 41 0 l 1
 41 57 l 1
41 1884 m 1
 3113 1884 l 1
 3113 1827 l 1
 41 1827 l 1
 41 1884 l 1
2081 2646 m 1
 2028 2744 1847 2843 1667 2843 c 0
 1339 2843 1147 2527 1147 2007 c 2
 1147 0 l 1
 410 0 l 1
 410 1892 l 2
 410 2510 930 2908 1626 2908 c 0
 1999 2908 2294 2654 2294 2380 c 0
 2294 2130 2142 1962 1896 1962 c 0
 1671 1962 1462 2101 1462 2347 c 0
 1462 2593 1622 2753 1843 2753 c 0
 1986 2753 2081 2646 2081 2646 c 1
3424 2847 m 1
 3375 2937 3224 3052 3019 3052 c 0
 2691 3052 2540 2732 2540 2212 c 2
 2540 0 l 1
 1802 0 l 1
 1802 2097 l 2
 1802 2715 2323 3113 2978 3113 c 0
 3351 3113 3604 2859 3604 2585 c 0
 3604 2335 3453 2167 3207 2167 c 0
 2982 2167 2773 2306 2773 2552 c 0
 2773 2798 2945 2957 3166 2957 c 0
 3293 2957 3408 2892 3424 2847 c 1
EndSplineSet
Validated: 5
Ligature2: "'liga' Standard Ligatures lookup 0-1" f f
LCarets2: 1 0
EndChar

StartChar: uniFB01
Encoding: 64257 64257 291
GlifName: uniF_B_01
Width: 2867
VWidth: 4730
Flags: HMW
LayerCount: 2
Fore
SplineSet
410 2097 m 2
 410 2756 930 3113 1749 3113 c 0
 2204 3113 2499 2859 2499 2585 c 0
 2499 2335 2347 2167 2101 2167 c 0
 1876 2167 1667 2306 1667 2552 c 0
 1667 2798 1839 2949 2060 2949 c 0
 2187 2949 2273 2896 2298 2830 c 1
 2228 2953 2028 3056 1749 3056 c 0
 1298 3056 1147 2732 1147 2212 c 2
 1147 0 l 1
 410 0 l 1
 410 2097 l 2
41 57 m 1
 2785 57 l 1
 2785 0 l 1
 41 0 l 1
 41 57 l 1
1720 1827 m 1
 41 1827 l 1
 41 1884 l 1
 2499 1884 l 1
 2499 0 l 1
 1720 0 l 1
 1720 1827 l 1
EndSplineSet
Validated: 5
Ligature2: "'liga' Standard Ligatures lookup 0-1" f i
LCarets2: 1 0
EndChar

StartChar: uniFB02
Encoding: 64258 64258 292
GlifName: uniF_B_02
Width: 3194
VWidth: 4730
Flags: HMW
LayerCount: 2
Fore
SplineSet
41 57 m 1
 3133 57 l 1
 3133 0 l 1
 41 0 l 1
 41 57 l 1
41 1884 m 1
 1720 1884 l 1
 1720 1827 l 1
 41 1827 l 1
 41 1884 l 1
1987 2990 m 1
 2765 3154 l 1
 2765 0 l 1
 1987 0 l 1
 1987 2990 l 1
2040 2834 m 1
 1987 2928 1835 3056 1626 3056 c 0
 1298 3056 1147 2732 1147 2212 c 2
 1147 0 l 1
 410 0 l 1
 410 2097 l 2
 410 2715 930 3113 1585 3113 c 0
 1958 3113 2212 2859 2212 2585 c 0
 2212 2335 2061 2167 1815 2167 c 0
 1590 2167 1380 2306 1380 2552 c 0
 1380 2798 1540 2957 1761 2957 c 0
 1933 2957 2040 2834 2040 2834 c 1
EndSplineSet
Validated: 5
Ligature2: "'liga' Standard Ligatures lookup 0-1" f l
LCarets2: 1 0
EndChar

StartChar: uniFB03
Encoding: 64259 64259 293
GlifName: uniF_B_03
Width: 4177
VWidth: 4730
Flags: HMW
LayerCount: 2
Fore
SplineSet
1720 2097 m 2
 1720 2756 2241 3113 3060 3113 c 0
 3515 3113 3809 2859 3809 2585 c 0
 3809 2335 3658 2167 3412 2167 c 0
 3187 2167 2978 2306 2978 2552 c 0
 2978 2798 3146 2949 3367 2949 c 0
 3514 2949 3593 2887 3609 2830 c 1
 3539 2953 3339 3052 3060 3052 c 0
 2609 3052 2458 2732 2458 2212 c 2
 2458 0 l 1
 1720 0 l 1
 1720 2097 l 2
41 57 m 1
 4096 57 l 1
 4096 0 l 1
 41 0 l 1
 41 57 l 1
410 1892 m 2
 410 2506 930 2908 1626 2908 c 0
 1999 2908 2294 2654 2294 2380 c 0
 2294 2130 2142 1962 1896 1962 c 0
 1671 1962 1462 2101 1462 2347 c 0
 1462 2593 1622 2753 1843 2753 c 0
 1986 2753 2064 2675 2064 2675 c 1
 1994 2761 1851 2843 1667 2843 c 0
 1339 2843 1147 2527 1147 2007 c 2
 1147 0 l 1
 410 0 l 1
 410 1892 l 2
3031 1827 m 1
 41 1827 l 1
 41 1884 l 1
 3809 1884 l 1
 3809 0 l 1
 3031 0 l 1
 3031 1827 l 1
EndSplineSet
Validated: 5
Ligature2: "'liga' Standard Ligatures lookup 0-1" f f i
LCarets2: 2 0 0
EndChar

StartChar: uniFB04
Encoding: 64260 64260 294
GlifName: uniF_B_04
Width: 4587
VWidth: 4730
Flags: HMW
LayerCount: 2
Fore
SplineSet
41 57 m 1
 4526 57 l 1
 4526 0 l 1
 41 0 l 1
 41 57 l 1
41 1884 m 1
 3113 1884 l 1
 3113 1827 l 1
 41 1827 l 1
 41 1884 l 1
3379 2990 m 1
 4157 3154 l 1
 4157 0 l 1
 3379 0 l 1
 3379 2990 l 1
2068 2675 m 1
 1998 2761 1847 2843 1667 2843 c 0
 1339 2843 1147 2527 1147 2007 c 2
 1147 0 l 1
 410 0 l 1
 410 1892 l 2
 410 2506 930 2908 1626 2908 c 0
 1999 2908 2294 2654 2294 2380 c 0
 2294 2130 2142 1962 1896 1962 c 0
 1671 1962 1462 2101 1462 2347 c 0
 1462 2593 1622 2753 1843 2753 c 0
 1970 2753 2068 2675 2068 2675 c 1
3428 2847 m 1
 3367 2962 3191 3056 3019 3056 c 0
 2691 3056 2540 2732 2540 2212 c 2
 2540 0 l 1
 1802 0 l 1
 1802 2097 l 2
 1802 2715 2323 3113 2978 3113 c 0
 3351 3113 3604 2859 3604 2585 c 0
 3604 2335 3453 2167 3207 2167 c 0
 2982 2167 2773 2306 2773 2552 c 0
 2773 2798 2933 2957 3154 2957 c 0
 3326 2957 3428 2847 3428 2847 c 1
EndSplineSet
Validated: 5
Ligature2: "'liga' Standard Ligatures lookup 0-1" f f l
LCarets2: 2 0 0
EndChar

StartChar: ogonek
Encoding: 731 731 295
GlifName: ogonek
Width: 2252
Flags: HMW
LayerCount: 2
Fore
SplineSet
1692 -545 m 1
 1631 -660 1553 -844 1139 -844 c 0
 807 -844 573 -738 573 -492 c 0
 573 -164 1057 74 1430 176 c 1
 1442 143 l 1
 1397 114 1282 -50 1282 -324 c 0
 1282 -598 1356 -696 1454 -696 c 0
 1540 -696 1598 -622 1647 -524 c 1
 1692 -545 l 1
EndSplineSet
Validated: 1
EndChar

StartChar: dotlessi
Encoding: 305 305 296
GlifName: dotlessi
Width: 1515
VWidth: 4730
Flags: HMW
LayerCount: 2
Fore
SplineSet
82 57 m 1
 1434 57 l 1
 1434 0 l 1
 82 0 l 1
 82 57 l 1
369 1827 m 1
 82 1827 l 1
 82 1884 l 1
 1147 1884 l 1
 1147 0 l 1
 369 0 l 1
 369 1827 l 1
EndSplineSet
Validated: 5
EndChar

StartChar: uni0237
Encoding: 567 567 297
GlifName: uni0237
Width: 1503
VWidth: 4730
Flags: HMW
LayerCount: 2
Fore
SplineSet
1208 1884 m 1
 1208 -49 l 2
 1208 -586 688 -1065 74 -1065 c 0
 -340 -1065 -676 -860 -676 -549 c 0
 -676 -299 -480 -119 -238 -119 c 0
 -13 -119 197 -258 197 -504 c 0
 197 -742 37 -897 -258 -897 c 0
 -356 -897 -418 -843 -426 -786 c 1
 -389 -884 -234 -995 4 -995 c 0
 496 -995 422 -434 422 86 c 2
 430 1827 l 1
 61 1827 l 1
 61 1884 l 1
 1208 1884 l 1
EndSplineSet
Validated: 37
EndChar

StartChar: kgreenlandic
Encoding: 312 312 306
GlifName: kgreenlandic
Width: 3035
VWidth: 4730
Flags: HMW
LayerCount: 2
Fore
SplineSet
2675 0 m 1
 1720 0 l 1
 1012 1110 l 1
 2208 1884 l 1
 2298 1884 l 1
 1659 1458 l 1
 2675 0 l 1
1491 57 m 1
 2830 57 l 1
 2830 0 l 1
 1491 0 l 1
 1491 57 l 1
2568 1827 m 1
 1655 1827 l 1
 1655 1884 l 1
 2568 1884 l 1
 2568 1827 l 1
61 57 m 1
 1372 57 l 1
 1372 0 l 1
 61 0 l 1
 61 57 l 1
430 1827 m 1
 61 1827 l 1
 61 1884 l 1
 1208 1884 l 1
 1208 0 l 1
 430 0 l 1
 430 1827 l 1
EndSplineSet
Validated: 5
EndChar

StartChar: breve
Encoding: 728 728 307
GlifName: breve
Width: 1310
VWidth: 4730
Flags: HMW
LayerCount: 2
Fore
SplineSet
180 3109 m 1
 180 2929 434 2888 655 2888 c 0
 876 2888 1130 2929 1130 3109 c 1
 1188 3109 l 1
 1188 2572 983 2335 655 2335 c 0
 327 2335 123 2572 123 3109 c 1
 180 3109 l 1
EndSplineSet
Validated: 1
EndChar

StartChar: thorn
Encoding: 254 254 318
GlifName: thorn
Width: 2756
VWidth: 4730
Flags: HMW
LayerCount: 2
Fore
SplineSet
1085 942 m 0
 1085 1565 1319 1921 1765 1921 c 0
 2211 1921 2634 1556 2634 942 c 0
 2634 328 2211 -41 1765 -41 c 0
 1323 -41 1085 319 1085 942 c 0
1126 942 m 0
 1126 336 1405 74 1540 74 c 0
 1704 74 1753 364 1753 942 c 0
 1753 1520 1720 1806 1556 1806 c 0
 1400 1806 1126 1548 1126 942 c 0
61 -967 m 1
 1413 -967 l 1
 1413 -1024 l 1
 61 -1024 l 1
 61 -967 l 1
348 3015 m 1
 61 3015 l 1
 61 3072 l 1
 1126 3072 l 1
 1126 -1024 l 1
 348 -1024 l 1
 348 3015 l 1
EndSplineSet
Validated: 5
EndChar

StartChar: Thorn
Encoding: 222 222 319
GlifName: T_horn
Width: 3010
Flags: HMW
LayerCount: 2
Fore
SplineSet
430 3072 m 1
 1311 3072 l 1
 1311 0 l 1
 430 0 l 1
 430 3072 l 1
61 57 m 1
 1679 57 l 1
 1679 0 l 1
 61 0 l 1
 61 57 l 1
61 3072 m 1
 1679 3072 l 1
 1679 3015 l 1
 61 3015 l 1
 61 3072 l 1
1761 737 m 2
 1229 737 l 1
 1229 795 l 1
 1475 795 l 2
 1868 795 1925 1232 1925 1597 c 0
 1925 1962 1868 2400 1475 2400 c 2
 1229 2400 l 1
 1229 2458 l 1
 1761 2458 l 2
 2502 2458 2867 2129 2867 1597 c 0
 2867 1065 2502 737 1761 737 c 2
EndSplineSet
Validated: 5
EndChar

StartChar: Dcroat
Encoding: 272 272 320
GlifName: D_croat
Width: 3338
Flags: HMW
LayerCount: 2
Fore
SplineSet
430 3072 m 1
 1311 3072 l 1
 1311 0 l 1
 430 0 l 1
 430 3072 l 1
1536 0 m 2
 61 0 l 1
 61 57 l 1
 1536 57 l 2
 2044 57 2212 668 2212 1536 c 0
 2212 2404 2003 3015 1536 3015 c 2
 61 3015 l 1
 61 3072 l 1
 1536 3072 l 2
 2572 3072 3174 2490 3174 1536 c 0
 3174 582 2531 0 1536 0 c 2
43 1524 m 1
 1690 1524 l 1
 1690 1467 l 1
 43 1467 l 1
 43 1524 l 1
EndSplineSet
EndChar

StartChar: Lslash
Encoding: 321 321 324
GlifName: L_slash
Width: 2703
Flags: HMW
LayerCount: 2
Fore
SplineSet
61 1475 m 1
 1884 2376 l 1
 1884 2306 l 1
 61 1405 l 1
 61 1475 l 1
EndSplineSet
Refer: 23 76 N 1 0 0 1 0 0 2
EndChar

StartChar: lslash
Encoding: 322 322 325
GlifName: lslash
Width: 1622
VWidth: 4730
Flags: HMW
LayerCount: 2
Fore
SplineSet
53 1475 m 1
 1630 2376 l 1
 1630 2306 l 1
 53 1405 l 1
 53 1475 l 1
EndSplineSet
Refer: 49 108 N 1 0 0 1 0 0 2
Validated: 5
EndChar

StartChar: eth
Encoding: 240 240 329
GlifName: eth
Width: 2703
VWidth: 4730
Flags: HMW
LayerCount: 2
Fore
SplineSet
614 2580 m 1
 2540 2580 l 1
 2540 2523 l 1
 614 2523 l 1
 614 2580 l 1
2499 1270 m 0
 2499 410 1994 -41 1294 -41 c 0
 594 -41 123 410 123 1024 c 0
 123 1720 647 2028 1143 2028 c 0
 1553 2028 1597 1667 1597 1147 c 1
 1556 1147 l 1
 1556 1761 1433 1917 1298 1917 c 0
 1138 1917 1065 1778 1065 1024 c 0
 1065 352 1081 16 1282 16 c 0
 1483 16 1556 393 1556 1147 c 1
 1573 1458 l 1
 1573 2163 1184 3068 430 3068 c 1
 430 3113 l 1
 1626 3113 2499 2339 2499 1270 c 0
EndSplineSet
EndChar

StartChar: OE
Encoding: 338 338 330
GlifName: O_E_
Width: 4239
Flags: HMW
LayerCount: 2
Fore
SplineSet
1679 3015 m 1025,0,0
1126 1536 m 0,0,0
 1126 668 1294 57 1679 57 c 1,0,0
 1556 0 l 1,0,0
 725 0 164 623 164 1536 c 0,0,0
 164 2449 725 3072 1556 3072 c 1,0,0
 1679 3015 l 1,0,0
 1294 3015 1126 2404 1126 1536 c 0,0,0
EndSplineSet
Refer: 16 69 N 1 0 0 1 1495 0 2
Validated: 5
EndChar

StartChar: germandbls
Encoding: 223 223 332
GlifName: germandbls
Width: 3526
VWidth: 4730
Flags: HMW
LayerCount: 2
Fore
SplineSet
1896 1647 m 1
 1896 1688 l 1
 2261 1688 2335 2077 2335 2339 c 0
 2335 2634 2240 3064 1855 3064 c 0
 1388 3064 1290 2552 1290 1970 c 2
 1290 0 l 1
 430 0 l 1
 430 2011 l 2
 430 2802 1228 3113 1896 3113 c 0
 2482 3113 3240 2884 3240 2380 c 0
 3240 1888 2719 1647 1896 1647 c 1
61 57 m 1
 1659 57 l 1
 1659 0 l 1
 61 0 l 1
 61 57 l 1
3363 778 m 0
 3363 205 2794 -41 2216 -41 c 0
 1761 -41 1446 262 1446 721 c 0
 1446 1012 1680 1151 1905 1151 c 0
 2110 1151 2331 1028 2331 758 c 0
 2331 504 2093 369 1892 369 c 0
 1790 369 1610 422 1565 520 c 1
 1602 241 1885 37 2114 37 c 0
 2397 37 2458 393 2458 655 c 0
 2458 1040 2424 1634 1896 1634 c 1
 1896 1675 l 1
 2883 1675 3363 1310 3363 778 c 0
EndSplineSet
Validated: 5
EndChar

StartChar: circumflex
Encoding: 710 710 335
GlifName: circumflex
Width: 1904
Flags: HMW
LayerCount: 2
Fore
SplineSet
950 2765 m 1
 233 2470 l 1
 205 2499 l 1
 737 3154 l 1
 1167 3154 l 1
 1700 2499 l 1
 1671 2470 l 1
 950 2765 l 1
EndSplineSet
Validated: 1
EndChar

StartChar: caron
Encoding: 711 711 336
GlifName: caron
Width: 1904
Flags: HMW
LayerCount: 2
Fore
SplineSet
954 2929 m 1
 1671 3224 l 1
 1700 3195 l 1
 1167 2540 l 1
 737 2540 l 1
 205 3195 l 1
 233 3224 l 1
 954 2929 l 1
EndSplineSet
Validated: 1
EndChar

StartChar: pi
Encoding: 960 960 337
GlifName: pi
Width: 2789
VWidth: 4730
Flags: HMW
LayerCount: 2
Fore
SplineSet
2646 422 m 1
 2552 135 2380 -41 1999 -41 c 0
 1643 -41 1417 98 1417 381 c 2
 1417 1720 l 1
 2195 1720 l 1
 2195 344 l 2
 2195 262 2236 184 2351 184 c 0
 2433 184 2527 274 2605 446 c 1
 2646 422 l 1
590 -41 m 0
 340 -41 143 94 143 319 c 0
 143 802 971 541 971 1143 c 2
 971 1843 l 1
 1200 1843 l 1
 1200 995 l 2
 1200 348 991 -41 590 -41 c 0
2564 1884 m 1
 2564 1106 l 1
 225 1106 l 1
 225 799 l 1
 168 799 l 1
 168 1884 l 1
 2564 1884 l 1
EndSplineSet
Validated: 5
EndChar

StartChar: uni1E9E
Encoding: 7838 7838 338
GlifName: uni1E_9E_
Width: 4018
VWidth: 4730
Flags: HMW
LayerCount: 2
Fore
SplineSet
61 57 m 1
 1700 57 l 1
 1700 0 l 1
 61 0 l 1
 61 57 l 1
2855 1548 m 1
 2753 1564 2121 1700 2019 1700 c 1
 3011 2949 l 1
 2896 2990 2691 3043 2429 3043 c 0
 1552 3043 1331 2592 1331 1765 c 2
 1331 0 l 1
 430 0 l 1
 430 1806 l 2
 430 2719 1311 3113 2429 3113 c 0
 3056 3113 3567 2842 3731 2666 c 1
 2855 1548 l 1
1712 512 m 1
 1786 299 2085 45 2462 45 c 0
 2847 45 2949 352 2949 860 c 0
 2949 1286 2711 1647 2019 1647 c 1
 2019 1700 l 1
 3334 1700 3854 1413 3854 881 c 0
 3854 308 3285 -41 2626 -41 c 0
 1921 -41 1577 385 1577 762 c 0
 1577 1053 1782 1253 2048 1253 c 0
 2294 1253 2474 1073 2474 803 c 0
 2474 549 2257 369 2015 369 c 0
 1859 369 1745 459 1712 512 c 1
EndSplineSet
Validated: 5
EndChar

StartChar: uni203D
Encoding: 8253 8253 339
GlifName: uni203D_
Width: 2949
Flags: HMW
LayerCount: 2
Fore
SplineSet
1827 2269 m 0
 1782 1876 1450 1426 1450 1139 c 1
 1393 1139 l 1
 1393 1426 1143 1876 1098 2269 c 0
 1094 2298 1094 2322 1094 2347 c 0
 1094 2462 1188 2654 1462 2654 c 0
 1736 2654 1831 2462 1831 2347 c 0
 1831 2322 1831 2298 1827 2269 c 0
246 2339 m 0
 246 2716 672 3113 1458 3113 c 0
 2076 3113 2744 2826 2744 2253 c 0
 2744 1680 1999 1372 1421 1372 c 1
 1421 1413 l 1
 1736 1433 2044 1884 2044 2294 c 0
 2044 2679 1810 3019 1364 3019 c 0
 786 3019 467 2760 393 2572 c 1
 413 2621 528 2703 684 2703 c 0
 926 2703 1040 2457 1040 2314 c 0
 1040 2027 827 1880 643 1880 c 0
 438 1880 246 2048 246 2339 c 0
EndSplineSet
Refer: 1 46 N 1 0 0 1 733 0 2
Validated: 5
EndChar

StartChar: R.alt
Encoding: 65536 -1 340
GlifName: R_.alt
Width: 3194
Flags: HMW
LayerCount: 2
Fore
SplineSet
1577 1569 m 2
 799 1569 l 1
 799 1606 l 1
 1372 1606 l 2
 1765 1606 1946 1786 1946 2314 c 0
 1946 2842 1765 3015 1372 3015 c 2
 61 3015 l 1
 61 3072 l 1
 1577 3072 l 2
 2318 3072 2847 2846 2847 2314 c 0
 2847 1782 2359 1569 1577 1569 c 2
61 57 m 1
 1679 57 l 1
 1679 0 l 1
 61 0 l 1
 61 57 l 1
430 3072 m 1
 1311 3072 l 1
 1311 0 l 1
 430 0 l 1
 430 3072 l 1
3154 0 m 1
 3088 0 2687 0 2540 0 c 0
 1340 0 2401 1548 1352 1548 c 2
 799 1548 l 1
 799 1577 l 1
 1925 1577 l 2
 3289 1577 2425 57 3011 57 c 0
 3097 57 3097 57 3154 57 c 1
 3154 0 l 1
EndSplineSet
Validated: 5
EndChar

StartChar: J.alt
Encoding: 65537 -1 341
GlifName: J_.alt
Width: 2973
Flags: HMW
LayerCount: 2
Fore
SplineSet
1090 3072 m 1
 2912 3072 l 1
 2912 3015 l 1
 1090 3015 l 1
 1090 3072 l 1
1622 3072 m 1
 2503 3072 l 1
 2503 696 l 1
 2257 204 1892 -123 1110 -123 c 0
 508 -123 61 307 61 758 c 0
 61 1135 336 1352 623 1352 c 0
 889 1352 1098 1155 1098 864 c 0
 1098 598 893 377 594 377 c 0
 385 377 258 476 168 578 c 1
 246 238 627 -57 1028 -57 c 0
 1401 -57 1622 205 1622 778 c 2
 1622 3072 l 1
EndSplineSet
Validated: 5
EndChar

StartChar: four.alt
Encoding: 65538 -1 342
GlifName: four.alt
Width: 2928
VWidth: 4730
Flags: HMW
LayerCount: 2
Fore
SplineSet
2662 57 m 1
 2662 0 l 1
 1085 0 l 1
 1085 57 l 1
 2662 57 l 1
2355 2040 m 1
 2355 -4 l 1
 1475 -4 l 1
 1475 1753 l 1
 1721 1753 2191 1917 2355 2040 c 1
164 827 m 1
 2724 827 l 1
 2724 770 l 1
 61 770 l 1
 634 1589 1229 2458 1311 3072 c 1
 2286 3072 l 1
 2208 2273 742 1622 164 827 c 1
EndSplineSet
Validated: 5
EndChar

StartChar: fj.lig
Encoding: 65539 -1 343
GlifName: fj.lig
Width: 2772
VWidth: 4730
Flags: HMW
LayerCount: 2
Fore
SplineSet
41 57 m 1
 1516 57 l 1
 1516 0 l 1
 41 0 l 1
 41 57 l 1
2499 -49 m 2
 2499 -586 1978 -1065 1364 -1065 c 0
 950 -1065 614 -872 614 -557 c 0
 614 -307 807 -119 1053 -119 c 0
 1278 -119 1487 -258 1487 -504 c 0
 1487 -750 1314 -897 1040 -897 c 0
 950 -897 889 -848 864 -795 c 1
 905 -897 1065 -995 1303 -995 c 0
 1795 -995 1720 -438 1720 82 c 2
 1720 1827 l 1
 41 1827 l 1
 41 1884 l 1
 2499 1884 l 1
 2499 -49 l 2
2281 2871 m 1
 2199 2957 2028 3052 1749 3052 c 0
 1298 3052 1147 2732 1147 2212 c 2
 1147 0 l 1
 410 0 l 1
 410 2097 l 2
 410 2756 930 3113 1749 3113 c 0
 2204 3113 2499 2859 2499 2585 c 0
 2499 2335 2347 2167 2101 2167 c 0
 1876 2167 1667 2306 1667 2552 c 0
 1667 2798 1839 2949 2060 2949 c 0
 2175 2949 2256 2900 2281 2871 c 1
EndSplineSet
Validated: 37
LCarets2: 1 0
Ligature2: "'liga' Standard Ligatures lookup 0-1" f j
EndChar

StartChar: uni2116
Encoding: 8470 8470 344
GlifName: uni2116
Width: 4939
Flags: HW
LayerCount: 2
Fore
SplineSet
3789 2335 m 0
 3789 1868 3850 1614 4010 1614 c 0
 4170 1614 4231 1868 4231 2335 c 0
 4231 2802 4170 3056 4010 3056 c 0
 3850 3056 3789 2802 3789 2335 c 0
3195 2335 m 0
 3195 2867 3555 3113 4010 3113 c 0
 4465 3113 4825 2867 4825 2335 c 0
 4825 1803 4465 1556 4010 1556 c 0
 3555 1556 3195 1803 3195 2335 c 0
EndSplineSet
Refer: 85 45 N 1 0 0 1 3273 164 2
Refer: 25 78 N 1 0 0 1 0 0 2
Validated: 5
EndChar

StartChar: Euro
Encoding: 8364 8364 345
GlifName: E_uro
Width: 3031
Flags: HW
LayerCount: 2
Fore
SplineSet
2658 2769 m 1
 2560 2892 2310 3035 2003 3035 c 0
 1516 3035 1393 2413 1393 1536 c 0
 1393 578 1540 74 1946 74 c 0
 2335 74 2634 369 2736 729 c 1
 2798 729 l 1
 2692 332 2352 -41 1774 -41 c 0
 951 -41 389 594 389 1536 c 0
 389 2396 934 3113 1880 3113 c 0
 2503 3113 2888 2777 2888 2441 c 0
 2888 2150 2695 1982 2449 1982 c 0
 2224 1982 2011 2130 2011 2417 c 0
 2011 2683 2207 2847 2449 2847 c 0
 2535 2847 2621 2806 2658 2769 c 1
EndSplineSet
Refer: 88 61 N 1 0 0 1 -123 -287 2
Validated: 5
EndChar

